<svg width="13" height="13" viewBox="0 0 13 13" fill="none" xmlns="http://www.w3.org/2000/svg">
<path d="M11.1075 0.866795L11.2214 0.752965C11.307 0.667339 11.4087 0.599426 11.5207 0.553104C11.6326 0.506782 11.7525 0.482959 11.8737 0.482995C11.9948 0.48303 12.1147 0.506924 12.2266 0.553311C12.3385 0.599698 12.4402 0.66767 12.5258 0.753347C12.6114 0.839024 12.6794 0.940727 12.7257 1.05265C12.772 1.16457 12.7958 1.28452 12.7958 1.40565C12.7957 1.52678 12.7719 1.64672 12.7255 1.75862C12.6791 1.87051 12.6111 1.97218 12.5254 2.0578L12.4116 2.17087C12.6063 2.38925 12.7101 2.67385 12.7018 2.96632C12.6934 3.25879 12.5734 3.53698 12.3665 3.74385L4.50389 11.6073C4.45474 11.6562 4.3932 11.6908 4.32589 11.7073L1.27006 12.4713C1.20611 12.4872 1.13913 12.4863 1.07563 12.4687C1.01213 12.4511 0.954262 12.4173 0.907663 12.3707C0.861063 12.3241 0.827312 12.2663 0.809691 12.2028C0.79207 12.1393 0.791179 12.0723 0.807103 12.0083L1.57106 8.95251C1.58777 8.88547 1.62236 8.82421 1.67114 8.77527L9.03721 1.4092C8.96354 1.35735 8.87391 1.33321 8.78416 1.34104C8.69442 1.34887 8.61033 1.38816 8.54675 1.45199L6.0318 3.96769C5.99629 4.00321 5.95412 4.03138 5.90772 4.0506C5.86132 4.06982 5.81159 4.07971 5.76136 4.07971C5.71113 4.07971 5.6614 4.06982 5.615 4.0506C5.5686 4.03138 5.52643 4.00321 5.49092 3.96769C5.4554 3.93218 5.42723 3.89002 5.40801 3.84362C5.38879 3.79721 5.3789 3.74748 5.3789 3.69725C5.3789 3.64703 5.38879 3.59729 5.40801 3.55089C5.42723 3.50449 5.4554 3.46233 5.49092 3.42681L8.00739 0.911868C8.21441 0.704848 8.4928 0.584911 8.78545 0.576671C9.0781 0.568431 9.36281 0.672514 9.58114 0.867559C9.79105 0.679961 10.0627 0.576195 10.3442 0.576054C10.6257 0.575913 10.8974 0.679407 11.1075 0.866795ZM10.6155 1.45199C10.5439 1.38038 10.4468 1.34015 10.3455 1.34015C10.2442 1.34015 10.1471 1.38038 10.0754 1.45199L2.28536 9.24052L1.7017 11.5759L4.03711 10.9923L11.8272 3.20374C11.8627 3.16826 11.891 3.1261 11.9102 3.0797C11.9295 3.03329 11.9394 2.98354 11.9394 2.9333C11.9394 2.88305 11.9295 2.8333 11.9102 2.7869C11.891 2.74049 11.8627 2.69834 11.8272 2.66286L10.6163 1.45199H10.6155Z" fill="white"/>
<path d="M11.2214 0.752965L11.186 0.7176L11.186 0.71761L11.2214 0.752965ZM12.5254 2.0578L12.5607 2.09328L12.5608 2.09317L12.5254 2.0578ZM12.4116 2.17087L12.3764 2.13539L12.3428 2.16878L12.3743 2.20414L12.4116 2.17087ZM12.3665 3.74385L12.3312 3.7085L12.3312 3.7085L12.3665 3.74385ZM4.50389 11.6073L4.53915 11.6427L4.53925 11.6426L4.50389 11.6073ZM4.32589 11.7073L4.31392 11.6588L4.31376 11.6588L4.32589 11.7073ZM1.27006 12.4713L1.28214 12.5198L1.28219 12.5198L1.27006 12.4713ZM0.807103 12.0083L0.758595 11.9962L0.758584 11.9963L0.807103 12.0083ZM1.57106 8.95251L1.61957 8.96464L1.61957 8.96461L1.57106 8.95251ZM1.67114 8.77527L1.63578 8.73992L1.63572 8.73998L1.67114 8.77527ZM9.03721 1.4092L9.07256 1.44456L9.11459 1.40253L9.06598 1.36832L9.03721 1.4092ZM8.54675 1.45199L8.58211 1.48734L8.58217 1.48727L8.54675 1.45199ZM6.0318 3.96769L6.06716 4.00305L6.06716 4.00304L6.0318 3.96769ZM5.76136 4.07971V4.12971V4.07971ZM5.3789 3.69725H5.4289H5.3789ZM5.49092 3.42681L5.45557 3.39145L5.45556 3.39146L5.49092 3.42681ZM8.00739 0.911868L8.04274 0.947234L8.04275 0.947223L8.00739 0.911868ZM9.58114 0.867559L9.54783 0.904847L9.58115 0.934611L9.61446 0.90484L9.58114 0.867559ZM10.6155 1.45199L10.5802 1.48735L10.5948 1.50199H10.6155V1.45199ZM10.0754 1.45199L10.0401 1.41662L10.0401 1.41663L10.0754 1.45199ZM2.28536 9.24052L2.25001 9.20516L2.24021 9.21496L2.23685 9.2284L2.28536 9.24052ZM1.7017 11.5759L1.65319 11.5638L1.63299 11.6446L1.71382 11.6244L1.7017 11.5759ZM4.03711 10.9923L4.04923 11.0408L4.06267 11.0374L4.07246 11.0276L4.03711 10.9923ZM11.8272 3.20374L11.7919 3.16834L11.7918 3.16838L11.8272 3.20374ZM11.8272 2.66286L11.7918 2.69821L11.7919 2.69826L11.8272 2.66286ZM10.6163 1.45199L10.6517 1.41663L10.637 1.40199H10.6163V1.45199ZM11.1429 0.90215L11.2567 0.788321L11.186 0.71761L11.0722 0.831439L11.1429 0.90215ZM11.2567 0.788331C11.3377 0.707346 11.4339 0.643114 11.5398 0.599304L11.5015 0.506904C11.3835 0.555737 11.2763 0.627331 11.186 0.7176L11.2567 0.788331ZM11.5398 0.599304C11.6456 0.555493 11.7591 0.532961 11.8736 0.532995L11.8737 0.432995C11.746 0.432957 11.6195 0.458072 11.5015 0.506904L11.5398 0.599304ZM11.8736 0.532995C11.9882 0.533028 12.1016 0.555626 12.2075 0.599499L12.2458 0.507122C12.1278 0.458221 12.0014 0.433032 11.8737 0.432995L11.8736 0.532995ZM12.2075 0.599499C12.3133 0.643372 12.4095 0.70766 12.4904 0.788692L12.5612 0.718002C12.4709 0.627681 12.3637 0.556024 12.2458 0.507122L12.2075 0.599499ZM12.4904 0.788692C12.5714 0.869725 12.6357 0.965915 12.6795 1.07177L12.7719 1.03353C12.723 0.91554 12.6514 0.808323 12.5612 0.718002L12.4904 0.788692ZM12.6795 1.07177C12.7233 1.17763 12.7458 1.29108 12.7458 1.40564L12.8458 1.40567C12.8458 1.27797 12.8207 1.15152 12.7719 1.03353L12.6795 1.07177ZM12.7458 1.40564C12.7458 1.5202 12.7232 1.63364 12.6793 1.73947L12.7717 1.77776C12.8206 1.6598 12.8457 1.53336 12.8458 1.40567L12.7458 1.40564ZM12.6793 1.73947C12.6354 1.8453 12.5711 1.94145 12.4901 2.02244L12.5608 2.09317C12.6511 2.0029 12.7228 1.89573 12.7717 1.77776L12.6793 1.73947ZM12.4902 2.02233L12.3764 2.13539L12.4468 2.20634L12.5607 2.09328L12.4902 2.02233ZM12.3743 2.20414C12.5605 2.413 12.6598 2.68518 12.6518 2.96489L12.7517 2.96775C12.7605 2.66252 12.6521 2.36551 12.4489 2.13759L12.3743 2.20414ZM12.6518 2.96489C12.6438 3.2446 12.5291 3.51065 12.3312 3.7085L12.4019 3.77921C12.6178 3.56331 12.743 3.27298 12.7517 2.96775L12.6518 2.96489ZM12.3312 3.7085L4.46853 11.5719L4.53925 11.6426L12.4019 3.77921L12.3312 3.7085ZM4.46863 11.5718C4.42591 11.6143 4.37243 11.6444 4.31392 11.6588L4.33785 11.7559C4.41398 11.7371 4.48356 11.698 4.53915 11.6427L4.46863 11.5718ZM4.31376 11.6588L1.25793 12.4228L1.28219 12.5198L4.33801 11.7558L4.31376 11.6588ZM1.25798 12.4228C1.2024 12.4366 1.14419 12.4358 1.089 12.4205L1.06226 12.5169C1.13407 12.5368 1.20982 12.5378 1.28214 12.5198L1.25798 12.4228ZM1.089 12.4205C1.03381 12.4052 0.983518 12.3759 0.943018 12.3354L0.872307 12.4061C0.925007 12.4588 0.990444 12.497 1.06226 12.5169L1.089 12.4205ZM0.943018 12.3354C0.902518 12.2949 0.873185 12.2446 0.857871 12.1894L0.761512 12.2161C0.781439 12.288 0.819608 12.3534 0.872307 12.4061L0.943018 12.3354ZM0.857871 12.1894C0.842556 12.1342 0.841781 12.076 0.855621 12.0204L0.758584 11.9963C0.740576 12.0686 0.741584 12.1443 0.761512 12.2161L0.857871 12.1894ZM0.85561 12.0205L1.61957 8.96464L1.52255 8.94038L0.758595 11.9962L0.85561 12.0205ZM1.61957 8.96461C1.6341 8.90634 1.66416 8.8531 1.70655 8.81057L1.63572 8.73998C1.58056 8.79532 1.54145 8.8646 1.52254 8.94041L1.61957 8.96461ZM1.70649 8.81063L9.07256 1.44456L9.00185 1.37385L1.63578 8.73992L1.70649 8.81063ZM9.06598 1.36832C8.98267 1.30968 8.88131 1.28237 8.77982 1.29123L8.78851 1.39085C8.86651 1.38405 8.9444 1.40503 9.00843 1.45009L9.06598 1.36832ZM8.77982 1.29123C8.67833 1.30008 8.58323 1.34452 8.51132 1.4167L8.58217 1.48727C8.63743 1.43181 8.71051 1.39765 8.78851 1.39085L8.77982 1.29123ZM8.51138 1.41664L5.99644 3.93234L6.06716 4.00304L8.58211 1.48734L8.51138 1.41664ZM5.99645 3.93234C5.96557 3.96321 5.92892 3.9877 5.88859 4.00441L5.92686 4.0968C5.97932 4.07506 6.027 4.04321 6.06716 4.00305L5.99645 3.93234ZM5.88859 4.00441C5.84825 4.02112 5.80502 4.02971 5.76136 4.02971V4.12971C5.81815 4.12971 5.87439 4.11853 5.92686 4.0968L5.88859 4.00441ZM5.76136 4.02971C5.7177 4.02971 5.67447 4.02112 5.63413 4.00441L5.59586 4.0968C5.64833 4.11853 5.70457 4.12971 5.76136 4.12971V4.02971ZM5.63413 4.00441C5.5938 3.9877 5.55715 3.96321 5.52628 3.93234L5.45556 4.00305C5.49572 4.04321 5.5434 4.07506 5.59586 4.0968L5.63413 4.00441ZM5.52628 3.93234C5.4954 3.90147 5.47091 3.86482 5.45421 3.82448L5.36182 3.86275C5.38355 3.91522 5.41541 3.96289 5.45556 4.00305L5.52628 3.93234ZM5.45421 3.82448C5.4375 3.78415 5.4289 3.74091 5.4289 3.69725H5.3289C5.3289 3.75405 5.34009 3.81028 5.36182 3.86275L5.45421 3.82448ZM5.4289 3.69725C5.4289 3.65359 5.4375 3.61036 5.45421 3.57003L5.36182 3.53176C5.34009 3.58423 5.3289 3.64046 5.3289 3.69725H5.4289ZM5.45421 3.57003C5.47091 3.52969 5.4954 3.49304 5.52628 3.46217L5.45556 3.39146C5.41541 3.43162 5.38355 3.47929 5.36182 3.53176L5.45421 3.57003ZM5.52626 3.46218L8.04274 0.947234L7.97205 0.876502L5.45557 3.39145L5.52626 3.46218ZM8.04275 0.947223C8.24073 0.749235 8.50698 0.634531 8.78686 0.626651L8.78405 0.526691C8.47863 0.53529 8.18808 0.66046 7.97204 0.876513L8.04275 0.947223ZM8.78686 0.626651C9.06674 0.618771 9.33903 0.718312 9.54783 0.904847L9.61445 0.830271C9.38659 0.626716 9.08947 0.518092 8.78405 0.526691L8.78686 0.626651ZM9.61446 0.90484C9.81521 0.725427 10.075 0.626189 10.3442 0.626054L10.3442 0.526054C10.0504 0.526201 9.76689 0.634494 9.54782 0.830278L9.61446 0.90484ZM10.3442 0.626054C10.6135 0.625919 10.8733 0.724897 11.0742 0.904109L11.1408 0.829481C10.9215 0.633916 10.638 0.525907 10.3442 0.526054L10.3442 0.626054ZM10.6509 1.41662C10.5699 1.33564 10.46 1.29015 10.3455 1.29015V1.39015C10.4335 1.39015 10.5179 1.42511 10.5802 1.48735L10.6509 1.41662ZM10.3455 1.29015C10.2309 1.29015 10.1211 1.33564 10.0401 1.41662L10.1108 1.48735C10.173 1.42511 10.2575 1.39015 10.3455 1.39015V1.29015ZM10.0401 1.41663L2.25001 9.20516L2.32071 9.27588L10.1108 1.48734L10.0401 1.41663ZM2.23685 9.2284L1.65319 11.5638L1.7502 11.5881L2.33387 9.25264L2.23685 9.2284ZM1.71382 11.6244L4.04923 11.0408L4.02499 10.9438L1.68957 11.5274L1.71382 11.6244ZM4.07246 11.0276L11.8625 3.2391L11.7918 3.16838L4.00176 10.9569L4.07246 11.0276ZM11.8625 3.23914C11.9027 3.19901 11.9346 3.15134 11.9564 3.09886L11.864 3.06053C11.8473 3.10087 11.8228 3.1375 11.7919 3.16834L11.8625 3.23914ZM11.9564 3.09886C11.9782 3.04638 11.9894 2.99012 11.9894 2.9333H11.8894C11.8894 2.97696 11.8808 3.0202 11.864 3.06053L11.9564 3.09886ZM11.9894 2.9333C11.9894 2.87648 11.9782 2.82021 11.9564 2.76773L11.864 2.80606C11.8808 2.84639 11.8894 2.88963 11.8894 2.9333H11.9894ZM11.9564 2.76773C11.9346 2.71525 11.9027 2.66758 11.8625 2.62746L11.7919 2.69826C11.8228 2.72909 11.8473 2.76573 11.864 2.80606L11.9564 2.76773ZM11.8625 2.6275L10.6517 1.41663L10.5809 1.48734L11.7918 2.69821L11.8625 2.6275ZM10.6163 1.40199H10.6155V1.50199H10.6163V1.40199Z" fill="white"/>
</svg>
