<svg width="185" height="188" viewBox="0 0 185 188" fill="none" xmlns="http://www.w3.org/2000/svg">
<g id="Layer_1" clip-path="url(#clip0_659_3618)">
<g id="Group">
<path id="Vector" d="M36.5211 15.1532C32.7773 12.7847 25.5444 15.0513 18.1841 16.9359C20.7054 19.4572 23.2013 21.953 25.7226 24.4742C30.4088 23.2773 35.0185 21.9275 38.7368 21.7238C38.8641 18.6677 38.2784 16.2737 36.5211 15.1532Z" fill="#88CDEB"/>
<path id="Vector_2" d="M69.8076 48.3882C71.4376 49.5597 71.9469 51.8772 71.8451 54.8314C71.7432 57.5819 71.081 60.8672 70.2406 64.2034C68.3814 71.538 66.1147 78.7707 68.4578 82.5399C69.5784 84.3226 71.9724 84.8829 75.0286 84.781C75.2323 81.0628 76.5821 76.4532 77.7791 71.7672C79.3581 65.5786 80.3005 59.5684 78.1611 56.7669H78.1866C78.1866 56.7669 75.3851 51.6225 69.7821 48.4137L69.8076 48.3882ZM77.7027 56.2321C77.7027 56.2321 77.6772 56.2067 77.6518 56.1812C77.6518 56.1812 77.6772 56.2067 77.7027 56.2321Z" fill="#88CDEB"/>
<path id="Vector_3" d="M36.6738 15.2808C38.3038 16.4523 38.8386 18.7953 38.7113 21.724C38.6094 24.4745 37.9472 27.7598 37.1068 31.096C35.2476 38.4561 32.981 45.6633 35.324 49.4325C36.4446 51.2152 38.8386 51.7755 41.8948 51.6736C42.124 47.9554 43.4738 43.3458 44.6453 38.6598C46.2243 32.4712 47.1667 26.4355 45.0273 23.6595H45.0528C45.0528 23.6595 42.2513 18.5151 36.6484 15.3062L36.6738 15.2808ZM44.5689 23.1247C44.5689 23.1247 44.5435 23.0992 44.518 23.0738C44.518 23.0738 44.5435 23.0992 44.5689 23.1247Z" fill="#88CDEB"/>
<path id="Vector_4" d="M43.8051 58.0146V57.9637C46.6066 60.0775 52.6171 59.1606 58.8313 57.5817C63.5174 56.3847 68.1271 55.0349 71.8454 54.8312C71.9473 51.7751 71.387 49.3812 69.6043 48.2606C65.8604 45.8921 58.6275 48.1587 51.2672 50.0433C47.9309 50.8837 44.6456 51.5459 41.895 51.6478C38.9662 51.7496 36.6231 51.2403 35.4771 49.6104C38.686 55.2132 43.8051 58.0146 43.8051 58.0146ZM43.2703 57.4543C43.2703 57.4543 43.2957 57.5053 43.3212 57.5053C43.3212 57.5053 43.2957 57.4798 43.2703 57.4543Z" fill="#88CDEB"/>
<path id="Vector_5" d="M84.3757 83.1253C81.0394 83.9657 77.754 84.6279 75.0035 84.7298C72.0747 84.8316 69.7316 84.2968 68.5601 82.6924C71.769 88.2952 76.8881 91.0966 76.8881 91.0966C79.6641 93.2104 85.7001 92.2681 91.9143 90.6891C91.9652 90.6891 92.0161 90.6891 92.0416 90.6637L84.5031 83.1253C84.5031 83.1253 84.4012 83.1508 84.3503 83.1508L84.3757 83.1253Z" fill="#88CDEB"/>
</g>
<g id="Group_2">
<path id="Vector_6" d="M27.0982 146.386C25.3663 149.748 27.7603 155.809 29.8487 161.998C31.8098 159.68 33.7708 157.363 35.7064 155.045C34.382 151.123 32.9304 147.227 32.4719 144.069C29.8997 144.171 27.8877 144.807 27.0727 146.412L27.0982 146.386Z" fill="#88CDEB"/>
<path id="Vector_7" d="M52.9482 115.647C53.8142 114.17 55.7752 113.584 58.2456 113.483C60.5887 113.381 63.4156 113.737 66.2935 114.247C72.6351 115.367 78.9257 116.844 81.9309 114.552C83.3571 113.483 83.6627 111.369 83.3571 108.771C80.1991 108.822 76.2006 107.982 72.1512 107.269C66.8029 106.326 61.6328 105.919 59.4171 107.931C59.4171 107.931 55.2658 110.63 52.9482 115.647ZM59.0351 108.364C59.0351 108.364 59.0351 108.389 59.0096 108.415C59.0096 108.415 59.0096 108.389 59.0351 108.364Z" fill="#88CDEB"/>
<path id="Vector_8" d="M27.1748 146.234C28.0407 144.757 30.0018 144.171 32.4722 144.069C34.8152 143.967 37.6422 144.324 40.5201 144.833C46.8616 145.954 53.1522 147.431 56.1575 145.139C57.5837 144.069 57.8893 141.955 57.6091 139.358C54.4511 139.409 50.4271 138.568 46.4032 137.855C41.0549 136.913 35.8849 136.505 33.6692 138.517C33.6692 138.517 29.5179 141.217 27.2003 146.234H27.1748ZM33.2617 138.95C33.2617 138.95 33.2617 138.976 33.2362 139.001C33.2362 139.001 33.2362 138.976 33.2617 138.95Z" fill="#88CDEB"/>
<path id="Vector_9" d="M62.8806 137.32H62.8552C64.4596 134.774 63.2626 129.68 61.5053 124.459C60.181 120.537 58.7293 116.641 58.2709 113.483C55.6986 113.585 53.6867 114.247 52.8717 115.826C51.1398 119.213 53.5593 125.249 55.6222 131.437C56.5645 134.239 57.3541 137.015 57.6342 139.358C57.9398 141.879 57.6342 143.916 56.3353 145.011C60.8686 141.904 62.8806 137.32 62.8806 137.32ZM62.4477 137.804C62.4477 137.804 62.4731 137.779 62.4986 137.753C62.4986 137.753 62.4731 137.779 62.4477 137.804Z" fill="#88CDEB"/>
<path id="Vector_10" d="M81.3706 100.851C82.3129 103.652 83.1024 106.428 83.3826 108.797C83.6882 111.293 83.3826 113.33 82.0837 114.45C86.5916 111.343 88.629 106.759 88.629 106.759H88.6035C90.2335 104.213 89.011 99.1191 87.2537 93.8983C87.2537 93.8474 87.2283 93.8219 87.2283 93.771L81.3706 100.724C81.3706 100.724 81.3961 100.8 81.4215 100.851H81.3706Z" fill="#88CDEB"/>
</g>
<g id="Group_3">
<path id="Vector_11" d="M101.185 102.761C99.5291 100.596 94.8939 100.316 90.2842 99.8066C91.1756 101.793 92.0924 103.805 92.9838 105.791C95.9381 106.123 98.8669 106.352 101.057 107.039C101.796 105.308 101.974 103.805 101.21 102.761H101.185Z" fill="#D2E754"/>
<path id="Vector_12" d="M113.104 129.17C113.791 130.189 113.588 131.666 112.875 133.322C112.212 134.901 111.117 136.632 109.92 138.39C107.246 142.21 104.368 145.902 104.929 148.577C105.183 149.85 106.431 150.69 108.214 151.276C109.156 149.188 110.913 146.794 112.62 144.374C114.861 141.14 116.72 137.88 116.109 135.792H116.134C116.134 135.792 115.651 132.226 113.129 129.17H113.104ZM115.931 135.41C115.931 135.41 115.931 135.384 115.931 135.359C115.931 135.359 115.931 135.384 115.931 135.41Z" fill="#D2E754"/>
<path id="Vector_13" d="M101.261 102.863C101.949 103.881 101.745 105.359 101.032 107.014C100.37 108.593 99.2745 110.325 98.0775 112.082C95.4033 115.902 92.5254 119.595 93.0857 122.269C93.3404 123.542 94.6138 124.383 96.3711 124.994C97.288 122.906 99.0707 120.512 100.777 118.092C103.018 114.858 104.877 111.598 104.266 109.51C104.266 109.51 103.782 105.944 101.261 102.888V102.863ZM104.113 109.102C104.113 109.102 104.113 109.102 104.113 109.077V109.102Z" fill="#D2E754"/>
<path id="Vector_14" d="M96.0656 129.069C97.2117 130.877 100.854 131.641 104.776 132.074C107.73 132.405 110.659 132.634 112.849 133.322C113.562 131.59 113.766 130.088 113.002 129.043C111.372 126.879 106.711 126.599 102.102 126.089C99.9877 125.86 97.9757 125.529 96.3712 124.994C94.6649 124.408 93.4424 123.593 93.1113 122.422C93.7226 126.344 96.0656 129.069 96.0656 129.069ZM95.8873 128.636C95.8873 128.636 95.8873 128.661 95.8873 128.687C95.8873 128.687 95.8873 128.661 95.8873 128.636Z" fill="#D2E754"/>
<path id="Vector_15" d="M113.918 152.397C111.83 152.168 109.793 151.837 108.188 151.302C106.482 150.716 105.259 149.926 104.928 148.729C105.539 152.651 107.883 155.376 107.883 155.376C109.003 157.21 112.671 157.974 116.593 158.407C116.618 158.407 116.644 158.407 116.669 158.407L113.969 152.422C113.969 152.422 113.918 152.422 113.868 152.422L113.918 152.397Z" fill="#D2E754"/>
</g>
<g id="Group_4">
<path id="Vector_16" d="M89.9789 80.1713C88.9856 83.7877 92.4748 89.0849 95.6583 94.5859C97.059 91.9373 98.4597 89.3141 99.886 86.6655C97.8485 83.1765 95.7092 79.7384 94.665 76.7842C92.2201 77.4209 90.4628 78.465 89.9789 80.1713Z" fill="#D2E754"/>
<path id="Vector_17" d="M108.571 45.2047C109.106 43.6003 110.837 42.6071 113.181 41.9958C115.396 41.4101 118.147 41.1554 120.974 41.0281C127.239 40.7734 133.479 40.8498 135.898 38.0484C137.044 36.7241 136.942 34.6358 136.127 32.1909C133.147 32.904 129.149 32.9295 125.176 33.1077C119.904 33.3369 114.912 34.0246 113.206 36.4185C113.206 36.4185 109.793 39.9075 108.571 45.2047ZM112.926 36.9278C112.926 36.9278 112.926 36.9533 112.9 36.9788C112.9 36.9788 112.9 36.9533 112.926 36.9278Z" fill="#D2E754"/>
<path id="Vector_18" d="M90.0298 80.0187C90.5646 78.4143 92.2964 77.421 94.6395 76.8098C96.8552 76.2241 99.6058 75.9694 102.433 75.8421C108.698 75.5874 114.938 75.6638 117.382 72.8624C118.529 71.5381 118.427 69.4497 117.612 67.0049C114.606 67.718 110.633 67.7434 106.66 67.9217C101.389 68.1509 96.3968 68.8385 94.6904 71.2325C94.6904 71.2325 91.2777 74.7215 90.0553 80.0187H90.0298ZM94.3848 71.7163V71.7673C94.3848 71.7673 94.3848 71.7418 94.3848 71.7163Z" fill="#D2E754"/>
<path id="Vector_19" d="M122.221 63.9231H122.196C123.24 61.1471 121.075 56.5121 118.401 51.8516C116.364 48.3625 114.224 44.9244 113.18 41.9702C110.735 42.6069 108.978 43.6511 108.494 45.3574C107.501 48.9737 110.99 54.2709 114.173 59.7719C115.625 62.2677 116.924 64.7635 117.637 66.9792C118.401 69.3222 118.528 71.3341 117.51 72.6838C121.203 68.7364 122.221 63.9231 122.221 63.9231ZM121.916 64.4834C121.916 64.4834 121.916 64.4579 121.941 64.4324C121.941 64.4324 121.941 64.4579 121.916 64.4834Z" fill="#D2E754"/>
<path id="Vector_20" d="M132.689 25.009C134.14 27.5048 135.439 30.0006 136.152 32.2163C136.916 34.5593 137.044 36.5712 136.025 37.921C139.718 33.9735 140.737 29.1602 140.737 29.1602H140.711C141.755 26.3843 139.616 21.7237 136.916 17.0887C136.916 17.0632 136.865 17.0123 136.865 16.9868L132.638 24.9072C132.638 24.9072 132.689 24.9836 132.689 25.009Z" fill="#D2E754"/>
</g>
<g id="Group_5">
<path id="Vector_21" d="M171.629 92.243C171.629 92.243 167.3 94.7388 161.213 89.9255C155.126 85.0867 153.802 82.1834 153.802 82.1834C153.802 82.1834 155.304 68.8894 156.705 68.7112C158.106 68.5329 161.773 72.6586 164.014 75.9948C166.256 79.331 173.616 86.7675 176.137 86.1563C176.137 86.1563 174.991 90.7914 171.655 92.243H171.629Z" fill="#E14561"/>
<path id="Vector_22" d="M164.575 69.8569L175.246 67.2593C175.246 67.2593 182.351 69.424 184.44 77.1661C186.528 84.9082 182.402 87.353 182.402 87.353L171.68 92.2173C171.68 92.2173 177.181 87.8114 174.151 79.56C171.12 71.3341 164.6 69.8315 164.6 69.8315L164.575 69.8569Z" fill="#E14561"/>
<path id="Vector_23" d="M135.618 99.5262C135.618 99.5262 133.122 100.29 129.047 94.8912C124.972 89.4921 117.408 77.0131 113.002 77.446C113.002 77.446 115.982 72.8365 121.432 71.5122C126.857 70.1879 134.064 78.7194 136.407 82.8451C138.75 86.9708 141.246 92.268 144.226 92.6755L135.618 99.5262Z" fill="#E14561"/>
<path id="Vector_24" d="M156.679 68.7109C156.679 68.7109 154.998 70.239 155.304 74.874C155.61 79.4836 155.661 90.5874 150.236 95.2989L135.592 99.5264C135.592 99.5264 141.806 94.8404 142.723 87.2257C143.614 79.8402 142.061 74.5175 144.404 71.5123L156.654 68.7109H156.679Z" fill="#E14561"/>
<path id="Vector_25" d="M121.788 71.436C121.788 71.436 116.873 73.2952 114.632 81.8522C112.492 90.0272 108.978 96.8525 105.565 98.0749C102.178 99.2973 94.1299 98.355 94.1299 98.355C94.1299 98.355 98.7905 89.6197 100.726 83.584C102.662 77.5482 104.954 75.6127 109.487 74.4157C114.02 73.2442 121.788 71.4615 121.788 71.4615V71.436Z" fill="#E14561"/>
</g>
<g id="Group_6">
<path id="Vector_26" d="M36.572 59.1094C36.572 59.1094 40.4686 59.5678 42.4042 65.0178C44.3143 70.4678 43.9323 72.709 43.9323 72.709C43.9323 72.709 37.2596 79.687 36.2664 79.1777C35.2731 78.6683 34.6364 74.6954 34.6109 71.7921C34.56 68.8889 32.9555 61.4015 31.0454 60.6374C31.0454 60.6374 33.7705 58.4727 36.5974 59.1094H36.572Z" fill="#444FB6"/>
<path id="Vector_27" d="M31.6059 75.0521L23.5325 71.8432C23.5325 71.8432 19.8142 67.4883 21.7752 62.1402C23.7363 56.792 27.4801 57.1995 27.4801 57.1995L36.5722 59.135C36.5722 59.135 31.0965 59.2369 29.543 65.2981C27.9894 71.3594 31.6314 75.0776 31.6314 75.0776L31.6059 75.0521Z" fill="#444FB6"/>
<path id="Vector_28" d="M63.2374 70.7734C63.2374 70.7734 65.1985 71.4356 65.555 76.3253C65.9116 81.215 65.5041 91.6821 68.5857 93.3884C68.5857 93.3884 64.6637 94.7127 60.5378 93.0828C56.412 91.4529 55.3678 83.4052 55.597 80.0181C55.8262 76.6309 56.4629 72.4797 54.6802 70.9262L63.2374 70.7734Z" fill="#444FB6"/>
<path id="Vector_29" d="M36.2666 79.1781C36.2666 79.1781 38.0239 79.0253 39.8067 76.2493C41.5894 73.4734 46.301 67.0811 51.8531 66.75L63.2373 70.7484C63.2373 70.7484 57.1759 70.6974 53.3047 74.6703C49.5609 78.5159 48.2875 82.2596 45.486 82.9472L36.2666 79.1781Z" fill="#444FB6"/>
<path id="Vector_30" d="M60.2573 92.9556C60.2573 92.9556 64.2558 94.0507 69.3749 90.1287C74.2648 86.385 79.4857 84.0165 82.2363 84.806C84.9868 85.5955 89.8257 89.6703 89.8257 89.6703C89.8257 89.6703 83.0512 92.6245 79.2056 95.2476C75.3599 97.8708 73.0168 97.9726 69.5532 96.6483C66.0895 95.324 60.2573 92.9556 60.2573 92.9556Z" fill="#444FB6"/>
</g>
<g id="Group_7">
<path id="Vector_31" d="M99.8601 161.768C99.8601 161.768 97.8736 159.069 92.8309 159.884C87.7882 160.724 78.4414 164.875 78.798 173.229L81.5231 179.417C81.5231 179.417 85.4961 175.19 89.0362 174.298C92.5762 173.407 98.9942 168.874 98.9942 168.874L99.8601 163.22V161.794V161.768Z" fill="#444FB6"/>
<path id="Vector_32" d="M98.4851 174.604V183.823C98.4851 183.823 98.205 187.822 89.393 188.025C80.5556 188.204 79.2822 184.053 79.2822 184.053L78.7983 173.254C78.7983 173.254 81.2433 178.271 88.6545 177.889C96.0657 177.533 98.5106 174.604 98.5106 174.604H98.4851Z" fill="#444FB6"/>
<path id="Vector_33" d="M81.4213 163.347C81.4213 163.347 81.3703 159.655 87.8392 156.7C94.3081 153.772 98.332 152.04 98.0774 149.315C97.8227 146.59 87.3808 145.24 85.0887 144.629C85.0887 144.629 77.8048 148.474 78.2123 157.745C78.2123 157.745 79.3838 162.685 81.4213 163.322V163.347Z" fill="#444FB6"/>
<path id="Vector_34" d="M78.7728 170.53C78.7728 170.53 80.0716 176.947 89.393 176.489C98.7143 176.031 99.8349 171.599 99.8349 171.599V161.794C99.8349 161.794 97.3899 166.531 90.7173 166.76C84.8087 166.964 80.5301 164.417 78.187 157.796L78.7728 170.53Z" fill="#444FB6"/>
<path id="Vector_35" d="M74.545 119.111C74.545 119.111 73.8319 112.336 80.0971 105.333C85.4708 99.3227 90.7172 97.8455 91.5577 97.4126C91.5577 97.4126 93.8244 103.83 93.7989 110.325C93.7989 110.325 88.4761 112.209 84.3502 115.953C81.2177 118.805 78.7727 121.276 77.6521 124.179C77.6521 124.179 75.5128 123.95 74.545 119.111Z" fill="#444FB6"/>
<path id="Vector_36" d="M98.0773 149.341C98.0773 149.341 97.4406 147.456 90.6916 146.437C83.9426 145.419 77.6265 140.809 75.7928 135.766L74.5703 119.111C74.5703 119.111 77.8812 127.184 85.5725 130.342C93.2639 133.5 98.1537 133.194 98.1028 138.186C98.0688 141.497 98.0688 145.215 98.1028 149.341H98.0773Z" fill="#444FB6"/>
</g>
<path id="Vector_37" d="M37.1322 161.972L43.0663 164.239L48.2872 160.648L47.9562 166.989L52.9734 170.86L46.861 172.49L44.7217 178.475L41.2581 173.152L34.9165 172.974L38.915 168.059L37.1322 161.972Z" fill="#E14561"/>
<path id="Vector_38" d="M117.887 9.73178L116.104 14.3414L118.88 18.4161L113.939 18.136L110.934 22.058L109.661 17.2701L105 15.6147L109.151 12.9407L109.304 8L113.124 11.107L117.887 9.73178Z" fill="#88CDEB"/>
<path id="Vector_39" d="M13.2688 79.331L12.0209 75.409L8.04785 74.2375L11.4096 71.8181L11.3078 67.6924L14.6441 70.1118L18.5407 68.762L17.2418 72.684L19.7377 75.9693L15.6119 75.9438L13.2688 79.331Z" fill="#D2E754"/>
<path id="Vector_40" d="M170.61 160.903L168.751 155.122L162.919 153.364L167.834 149.824L167.707 143.763L172.597 147.329L178.327 145.317L176.442 151.098L180.11 155.937L174.048 155.911L170.61 160.903Z" fill="#D2E754"/>
<path id="Vector_41" d="M113.511 106.632L114.071 108.898L116.262 109.713L114.301 110.961L114.199 113.304L112.39 111.802L110.149 112.438L111.015 110.248L109.716 108.313L112.059 108.465L113.511 106.632Z" fill="#E14561"/>
<path id="Vector_42" d="M14.7947 141L15.355 143.241L17.5453 144.056L15.5588 145.304L15.4569 147.647L13.6741 146.144L11.433 146.781L12.2989 144.616L11 142.655L13.3431 142.808L14.7947 141Z" fill="#D2E754"/>
<path id="Vector_43" d="M62.4985 7.23291L62.2184 11.2058L65.3255 13.6762L61.4543 14.6439L60.0536 18.3367L57.9652 14.975L53.9922 14.7967L56.539 11.7406L55.4948 7.92053L59.1877 9.39764L62.4985 7.23291Z" fill="#444FB6"/>
<path id="Vector_44" d="M156.628 51.6226L156.348 55.5955L159.455 58.0658L155.584 59.0336L154.183 62.7518L152.095 59.3646L148.122 59.1864L150.669 56.1303L149.625 52.3102L153.318 53.8127L156.628 51.6226Z" fill="#444FB6"/>
<path id="Vector_45" d="M88.1197 82.6926C88.6036 82.8199 85.522 72.2001 84.8853 60.918C84.3504 51.3932 84.4014 40.5951 84.2486 33.2605C83.9429 17.8273 85.0635 -0.0508261 80.9886 0.000108584C76.9137 0.0510433 79.0531 20.5013 79.9699 32.3691C80.8868 44.2369 86.9227 82.387 88.1452 82.6926H88.1197Z" fill="#444FB6"/>
<path id="Vector_46" d="M94.3848 93.7707C94.1302 94.1273 103.655 95.6298 112.849 99.4245C120.617 102.633 129.2 106.81 135.083 109.51C147.511 115.163 161.366 122.956 162.741 119.518C164.142 116.08 147.104 110.044 137.324 106.25C127.57 102.455 95.0215 92.9048 94.3594 93.7962L94.3848 93.7707Z" fill="#444FB6"/>
<path id="Vector_47" d="M113.409 117.43C113.002 117.608 120.515 123.67 126.576 131.565C131.696 138.212 137.044 146.157 140.788 151.404C148.708 162.507 156.807 176.183 159.736 173.891C162.665 171.599 150.924 157.847 144.379 149.697C137.808 141.522 114.428 116.972 113.409 117.43Z" fill="#E14561"/>
<path id="Vector_48" d="M70.5719 130.775C70.2918 130.596 70.2408 137.804 68.5345 144.96C67.1083 150.996 65.0708 157.745 63.7974 162.329C61.1233 172.032 57.1248 183.008 59.6716 183.721C62.2184 184.434 64.6888 171.268 66.3188 163.704C67.9487 156.14 71.2596 131.182 70.5719 130.775Z" fill="#D2E754"/>
<path id="Vector_49" d="M130.116 59.0079C129.785 58.8551 136.534 53.9145 142.163 47.4712C146.9 42.0212 151.891 35.527 155.381 31.2231C162.741 22.1312 170.381 10.9001 172.801 12.8356C175.22 14.7711 164.447 26.0022 158.386 32.7002C152.324 39.3726 130.982 59.4154 130.116 59.0334V59.0079Z" fill="#E14561"/>
<path id="Vector_50" d="M52.8972 106.479C53.1519 106.708 46.0718 108.924 39.5265 112.769C33.9999 116.004 27.9895 120.053 23.8382 122.702C15.0772 128.254 5.47571 135.537 3.99856 133.22C2.52141 130.928 14.7461 124.51 21.7243 120.613C28.7026 116.717 52.286 105.919 52.9227 106.479H52.8972Z" fill="#E14561"/>
<path id="Vector_51" d="M80.5808 99.4756C80.7591 99.0172 70.1389 100.596 59.1876 99.7557C49.9427 99.0426 39.5517 97.591 32.4716 96.776C17.5473 95.0952 0.458261 91.708 -0.000164261 95.63C-0.484057 99.552 19.5084 100.163 31.0454 100.825C42.5824 101.488 80.1224 100.622 80.5808 99.4756Z" fill="#D2E754"/>
<path id="Vector_52" d="M103.553 26.6389C103.91 27.4793 103.528 28.4471 102.687 28.8036C101.847 29.1601 100.879 28.8036 100.522 27.9377C100.166 27.0973 100.548 26.1295 101.388 25.773C102.229 25.4164 103.197 25.7984 103.553 26.6389Z" fill="#444FB6"/>
<path id="Vector_53" d="M101.164 53.9992C101.521 54.8396 101.164 55.8074 100.298 56.1639C99.4577 56.5205 98.4899 56.1385 98.1333 55.2981C97.7768 54.4576 98.1588 53.4899 98.9992 53.1333C99.8397 52.7768 100.807 53.1588 101.164 53.9992Z" fill="#444FB6"/>
<path id="Vector_54" d="M111.27 173.484C111.627 174.324 111.27 175.292 110.404 175.648C109.564 176.005 108.596 175.623 108.239 174.782C107.883 173.942 108.265 172.974 109.105 172.618C109.946 172.261 110.913 172.643 111.27 173.484Z" fill="#444FB6"/>
<path id="Vector_55" d="M13.1924 111.7C13.7272 112.973 13.1414 114.45 11.868 115.011C10.5946 115.545 9.11748 114.96 8.55718 113.686C7.99688 112.413 8.60812 110.936 9.88152 110.376C11.1549 109.815 12.6321 110.426 13.1924 111.7Z" fill="#88CDEB"/>
<path id="Vector_56" d="M130.931 150.639C131.466 151.913 130.88 153.39 129.607 153.95C128.333 154.51 126.856 153.899 126.296 152.626C125.736 151.352 126.347 149.875 127.62 149.315C128.894 148.755 130.371 149.366 130.931 150.639Z" fill="#88CDEB"/>
<path id="Vector_57" d="M102.458 83.6604C102.229 83.1002 101.566 82.8455 101.006 83.0747C100.446 83.3039 100.191 83.966 100.42 84.5263C100.65 85.0866 101.312 85.3413 101.872 85.1121C102.432 84.8829 102.687 84.2207 102.458 83.6604Z" fill="#88CDEB"/>
<path id="Vector_58" d="M72.4056 27.3518C72.1764 26.7916 71.5142 26.5369 70.9539 26.7661C70.3936 26.9953 70.1389 27.6575 70.3681 28.2177C70.5974 28.778 71.2595 29.0327 71.8198 28.8035C72.3801 28.5743 72.6348 27.9121 72.4056 27.3518Z" fill="#88CDEB"/>
<path id="Vector_59" d="M150.121 130.67C149.892 130.109 149.23 129.855 148.67 130.084C148.109 130.313 147.855 130.975 148.084 131.536C148.313 132.096 148.975 132.351 149.536 132.121C150.096 131.892 150.351 131.23 150.121 130.67Z" fill="#88CDEB"/>
<path id="Vector_60" d="M11.8934 160.215C11.6642 159.655 11.002 159.4 10.4417 159.629C9.88141 159.859 9.62673 160.521 9.85594 161.081C10.0852 161.641 10.7473 161.896 11.3076 161.667C11.8679 161.438 12.1226 160.775 11.8934 160.215Z" fill="#88CDEB"/>
<path id="Vector_61" d="M133.631 67.2591C133.401 66.6988 132.739 66.4441 132.179 66.6733C131.619 66.9025 131.364 67.5647 131.593 68.125C131.822 68.6852 132.485 68.9399 133.045 68.7107C133.605 68.4815 133.86 67.8194 133.631 67.2591Z" fill="#88CDEB"/>
<path id="Vector_62" d="M68.9168 38.5578C69.4007 39.6529 68.8913 40.9263 67.7708 41.4101C66.6756 41.894 65.4022 41.3847 64.9183 40.2641C64.4599 39.169 64.9693 37.8956 66.0644 37.4118C67.1595 36.9279 68.4329 37.4372 68.9168 38.5578Z" fill="#E14561"/>
<path id="Vector_63" d="M175.144 51.5969C175.628 52.6919 175.118 53.9653 174.023 54.4492C172.928 54.9331 171.629 54.4237 171.171 53.3032C170.712 52.2081 171.222 50.9347 172.317 50.4508C173.412 49.9669 174.685 50.4763 175.169 51.5969H175.144Z" fill="#E14561"/>
<path id="Vector_64" d="M10.0598 13.2939C10.5437 14.389 10.0343 15.6623 8.93921 16.1462C7.84408 16.6301 6.57068 16.1207 6.08679 15.0002C5.62836 13.9051 6.13772 12.6317 7.23285 12.1478C8.32798 11.6639 9.60138 12.1988 10.0853 13.2939H10.0598Z" fill="#88CDEB"/>
<path id="Vector_65" d="M175.144 103.245C175.628 104.34 175.118 105.613 174.023 106.097C172.928 106.581 171.629 106.072 171.171 104.951C170.712 103.856 171.222 102.583 172.317 102.099C173.412 101.615 174.685 102.124 175.169 103.245H175.144Z" fill="#E14561"/>
<path id="Vector_66" d="M32.5738 85.0611C32.9304 85.876 32.5738 86.8183 31.7334 87.1494C30.9184 87.506 30.0015 87.1239 29.645 86.309C29.2884 85.494 29.6705 84.5772 30.4854 84.2207C31.3004 83.8641 32.2427 84.2461 32.5738 85.0611Z" fill="#E14561"/>
<path id="Vector_67" d="M44.0626 130.974C44.4191 131.789 44.0626 132.731 43.2221 133.062C42.4072 133.419 41.4648 133.062 41.1338 132.222C40.7772 131.407 41.1592 130.465 41.9742 130.134C42.7892 129.777 43.7315 130.159 44.0626 130.974Z" fill="#444FB6"/>
<path id="Vector_68" d="M65.6555 63.472C66.1903 64.6944 65.6046 66.1206 64.3821 66.6554C63.1596 67.1902 61.7334 66.6044 61.1986 65.382C60.6638 64.1596 61.2495 62.7334 62.472 62.1986C63.6945 61.6638 65.1207 62.2495 65.6555 63.472Z" fill="#D2E754"/>
<path id="Vector_69" d="M34.3565 25.8241C34.7131 26.6391 34.3311 27.5559 33.5161 27.9125C32.7011 28.269 31.7843 27.887 31.4277 27.072C31.0711 26.2825 31.4532 25.3402 32.2681 25.0092C33.0831 24.6526 34 25.0346 34.3565 25.8241Z" fill="#444FB6"/>
<path id="Vector_70" d="M90.5453 102.593L88.9663 97.6776L84 96.2005L88.2022 93.1699L88.0749 88L92.2516 91.0561L97.116 89.3498L95.5116 94.265L98.6441 98.3652L93.4741 98.3397L90.5453 102.593Z" fill="#D2E754"/>
<path id="Vector_71" d="M172.368 43.7276L170.764 38.8124L165.823 37.3353L170.025 34.3046L169.898 29.1348L174.074 32.1909L178.939 30.4845L177.334 35.3743L180.467 39.5L175.297 39.4745L172.368 43.7276Z" fill="#D2E754"/>
</g>
<defs>
<clipPath id="clip0_659_3618">
<rect width="185" height="188" fill="white"/>
</clipPath>
</defs>
</svg>
