<svg width="495" height="200" viewBox="0 0 495 200" fill="none" xmlns="http://www.w3.org/2000/svg">
<g clip-path="url(#clip0_21_2379)">
<path d="M99.8054 99.6905L99.8053 4.71551e-05L0 6.10352e-05C7.65629e-06 55.0532 44.6888 99.6905 99.8054 99.6905Z" fill="#F6F6F6"/>
<path d="M199.204 99.5594C144.087 99.5594 99.3987 144.197 99.3987 199.25C154.515 199.25 199.204 154.613 199.204 99.5594Z" fill="#F7F7F7"/>
<path d="M199.257 99.6905L199.257 4.71551e-05C144.14 5.48202e-05 99.4512 44.6374 99.4512 99.6905L199.257 99.6905Z" fill="#E14561"/>
<path d="M1.3864e-05 199.25L0 99.5594L99.8053 99.5594L99.8054 199.25L1.3864e-05 199.25Z" fill="#88CDEB"/>
<path d="M197.604 99.6905L197.604 6.10352e-05L297.409 4.71551e-05L297.409 99.6905L197.604 99.6905Z" fill="#F6F6F6"/>
<path d="M197.604 6.10333e-05L197.604 15.4993C197.604 61.9577 235.367 99.6774 281.879 99.6774L297.396 99.6774L297.396 4.71551e-05L197.591 6.10352e-05L197.604 6.10333e-05Z" fill="#444FB6"/>
<path d="M396.808 149.411L396.808 99.5725L346.912 99.5725C319.353 99.5725 297.016 121.885 297.016 149.411C297.016 176.938 319.353 199.25 346.912 199.25C374.47 199.25 396.808 176.938 396.808 149.411Z" fill="#F7F7F7"/>
<path d="M297.055 99.6904L297.055 0L396.861 -1.388e-05L396.861 99.6904L297.055 99.6904Z" fill="#D2E754"/>
<path d="M197.604 199.25L197.604 99.5594L297.409 99.5594L297.409 199.25L197.604 199.25Z" fill="#E14561"/>
<path d="M397 0L397 14.9691C397 61.9004 434.338 100 480.33 100L495 100L495 -1.36289e-05L397 0Z" fill="#F7F7F7"/>
<path d="M495 149.411L495 99.5725L445.104 99.5725C417.546 99.5725 395.208 121.885 395.208 149.411C395.208 176.938 417.546 199.25 445.104 199.25C472.662 199.25 495 176.938 495 149.411Z" fill="#88CDEB"/>
<path d="M216.702 126.261C220.375 126.261 223.352 123.287 223.352 119.618C223.352 115.95 220.375 112.976 216.702 112.976C213.029 112.976 210.052 115.95 210.052 119.618C210.052 123.287 213.029 126.261 216.702 126.261Z" fill="white"/>
<path d="M216.702 155.7C220.375 155.7 223.352 152.726 223.352 149.057C223.352 145.389 220.375 142.415 216.702 142.415C213.029 142.415 210.052 145.389 210.052 149.057C210.052 152.726 213.029 155.7 216.702 155.7Z" fill="white"/>
<path d="M421.048 76.3826C424.72 76.3826 427.698 73.4085 427.698 69.7401C427.698 66.0716 424.72 63.0975 421.048 63.0975C417.375 63.0975 414.397 66.0716 414.397 69.7401C414.397 73.4085 417.375 76.3826 421.048 76.3826Z" fill="#444FB6"/>
<path d="M439.739 57.7127C443.412 57.7127 446.389 54.7387 446.389 51.0702C446.389 47.4017 443.412 44.4277 439.739 44.4277C436.066 44.4277 433.089 47.4017 433.089 51.0702C433.089 54.7387 436.066 57.7127 439.739 57.7127Z" fill="#444FB6"/>
<path d="M73.6768 32.9376C77.3495 32.9376 80.327 29.9635 80.327 26.2951C80.327 22.6266 77.3495 19.6525 73.6768 19.6525C70.0041 19.6525 67.0266 22.6266 67.0266 26.2951C67.0266 29.9635 70.0041 32.9376 73.6768 32.9376Z" fill="#444FB6"/>
<path d="M73.6768 56.5206C77.3495 56.5206 80.327 53.5465 80.327 49.878C80.327 46.2096 77.3495 43.2355 73.6768 43.2355C70.0041 43.2355 67.0266 46.2096 67.0266 49.878C67.0266 53.5465 70.0041 56.5206 73.6768 56.5206Z" fill="#444FB6"/>
<path d="M247.369 126.261C251.042 126.261 254.019 123.287 254.019 119.618C254.019 115.95 251.042 112.976 247.369 112.976C243.696 112.976 240.719 115.95 240.719 119.618C240.719 123.287 243.696 126.261 247.369 126.261Z" fill="white"/>
<path d="M247.369 155.7C251.042 155.7 254.019 152.726 254.019 149.057C254.019 145.389 251.042 142.415 247.369 142.415C243.696 142.415 240.719 145.389 240.719 149.057C240.719 152.726 243.696 155.7 247.369 155.7Z" fill="white"/>
<path d="M278.049 155.7C281.722 155.7 284.699 152.726 284.699 149.057C284.699 145.389 281.722 142.415 278.049 142.415C274.376 142.415 271.399 145.389 271.399 149.057C271.399 152.726 274.376 155.7 278.049 155.7Z" fill="white"/>
</g>
<defs>
<clipPath id="clip0_21_2379">
<rect width="200" height="495" fill="white" transform="matrix(1.39071e-07 1 1 -1.39071e-07 0 6.10352e-05)"/>
</clipPath>
</defs>
</svg>
