<svg width="720" height="900" viewBox="0 0 720 900" fill="none" xmlns="http://www.w3.org/2000/svg">
<g clip-path="url(#clip0_114_4174)">
<path d="M180 900L180 720L1.52588e-05 720C6.56867e-06 819.403 80.5967 900 180 900Z" fill="#444FB6"/>
<path d="M1.52588e-05 540V720H180C180 620.668 99.356 540 1.52588e-05 540Z" fill="#88CDEB"/>
<path d="M540 180H720V0C620.597 0 540 80.5966 540 180Z" fill="#F6F6F6"/>
<path d="M540 360C540 260.597 459.403 180 360 180C360 279.403 440.597 360 540 360Z" fill="#F7F7F7"/>
<path d="M540 360H720C720 260.597 639.403 180 540 180V360Z" fill="#E14561"/>
<path d="M360 0H540V180H360V0Z" fill="#88CDEB"/>
<path d="M180 0H360V180H180V0Z" fill="#F7F7F7"/>
<path d="M180 179.865H0V359.865H94.4828C141.677 359.865 180 321.541 180 274.347V179.865Z" fill="#88CDEB"/>
<path d="M180 360C279.403 360 360 279.403 360 180H180V360Z" fill="#444FB6"/>
<path d="M1.52588e-05 0H180V180H1.52588e-05V0Z" fill="#E14561"/>
<path d="M540 360H720V540H540V360Z" fill="#F6F6F6"/>
<path d="M720 360.024H692.011C608.115 360.024 540 428.13 540 512.015V540H720V360V360.024Z" fill="#444FB6"/>
<path d="M450 720L540 720L540 630C540 580.292 499.708 540 450 540C400.292 540 360 580.292 360 630C360 679.708 400.292 720 450 720Z" fill="#F7F7F7"/>
<path d="M360 360H540V540H360V360Z" fill="#E14561"/>
<path d="M180 360H360V540H180V360Z" fill="#D2E754"/>
<path d="M359.976 360.024H331.991C248.106 360.024 180 428.13 180 512.015V540H360V360L359.976 360.024Z" fill="#F7F7F7"/>
<path d="M180 540H360V720H180V540Z" fill="#444FB6"/>
<path d="M360 540.024H180V568.009C180 651.894 248.106 720 331.991 720H359.976V540L360 540.024Z" fill="#D2E754"/>
<path d="M311.674 34.5107C311.674 41.1565 317.057 46.5444 323.696 46.5444C330.336 46.5444 335.719 41.1565 335.719 34.5107C335.719 27.8649 330.336 22.477 323.696 22.477C317.057 22.477 311.674 27.8649 311.674 34.5107Z" fill="#D2E754"/>
<path d="M258.392 34.5107C258.392 41.1565 263.775 46.5444 270.414 46.5444C277.054 46.5444 282.437 41.1565 282.437 34.5107C282.437 27.8649 277.054 22.477 270.414 22.477C263.775 22.477 258.392 27.8649 258.392 34.5107Z" fill="#D2E754"/>
<path d="M205.134 34.5107C205.134 41.1565 210.517 46.5444 217.156 46.5444C223.796 46.5444 229.179 41.1565 229.179 34.5107C229.179 27.8649 223.796 22.477 217.156 22.477C210.517 22.477 205.134 27.8649 205.134 34.5107Z" fill="#D2E754"/>
<path d="M311.674 90.0033C311.674 96.6491 317.057 102.037 323.696 102.037C330.336 102.037 335.719 96.6491 335.719 90.0033C335.719 83.3575 330.336 77.9696 323.696 77.9696C317.057 77.9696 311.674 83.3575 311.674 90.0033Z" fill="#D2E754"/>
<path d="M205.134 90.0033C205.134 96.6491 210.517 102.037 217.156 102.037C223.796 102.037 229.179 96.6491 229.179 90.0033C229.179 83.3575 223.796 77.9696 217.156 77.9696C210.517 77.9696 205.134 83.3575 205.134 90.0033Z" fill="#D2E754"/>
<path d="M311.674 145.52C311.674 152.165 317.057 157.553 323.696 157.553C330.336 157.553 335.719 152.165 335.719 145.52C335.719 138.874 330.336 133.486 323.696 133.486C317.057 133.486 311.674 138.874 311.674 145.52Z" fill="#D2E754"/>
<path d="M258.392 145.52C258.392 152.165 263.775 157.553 270.414 157.553C277.054 157.553 282.437 152.165 282.437 145.52C282.437 138.874 277.054 133.486 270.414 133.486C263.775 133.486 258.392 138.874 258.392 145.52Z" fill="#D2E754"/>
<path d="M205.134 145.52C205.134 152.165 210.517 157.553 217.156 157.553C223.796 157.553 229.179 152.165 229.179 145.52C229.179 138.874 223.796 133.486 217.156 133.486C210.517 133.486 205.134 138.874 205.134 145.52Z" fill="#D2E754"/>
<path d="M491.483 392.127C491.483 398.773 496.866 404.161 503.506 404.161C510.145 404.161 515.528 398.773 515.528 392.127C515.528 385.481 510.145 380.093 503.506 380.093C496.866 380.093 491.483 385.481 491.483 392.127Z" fill="white"/>
<path d="M438.201 392.127C438.201 398.773 443.584 404.161 450.224 404.161C456.863 404.161 462.246 398.773 462.246 392.127C462.246 385.481 456.863 380.093 450.224 380.093C443.584 380.093 438.201 385.481 438.201 392.127Z" fill="white"/>
<path d="M660.387 133.32C660.387 139.966 665.77 145.354 672.409 145.354C679.049 145.354 684.431 139.966 684.431 133.32C684.431 126.674 679.049 121.286 672.409 121.286C665.77 121.286 660.387 126.674 660.387 133.32Z" fill="#444FB6"/>
<path d="M617.705 133.32C617.705 139.966 623.087 145.354 629.727 145.354C636.366 145.354 641.749 139.966 641.749 133.32C641.749 126.674 636.366 121.286 629.727 121.286C623.087 121.286 617.705 126.674 617.705 133.32Z" fill="#444FB6"/>
<path d="M37.7364 600.496C31.0968 600.496 25.7142 595.109 25.7142 588.463C25.7142 581.817 31.0968 576.429 37.7364 576.429C44.3761 576.429 49.7587 581.817 49.7587 588.463C49.7587 595.109 44.3761 600.496 37.7364 600.496Z" fill="white"/>
<path d="M24.1116 36.0061C24.1116 42.6519 29.4943 48.0398 36.1338 48.0398C42.7733 48.0398 48.156 42.6519 48.156 36.0061C48.156 29.3603 42.7733 23.9724 36.1338 23.9724C29.4943 23.9724 24.1116 29.3603 24.1116 36.0061Z" fill="white"/>
<path d="M37.7364 649.153C31.0968 649.153 25.7142 643.765 25.7142 637.119C25.7142 630.473 31.0968 625.086 37.7364 625.086C44.3761 625.086 49.7587 630.473 49.7587 637.119C49.7587 643.765 44.3761 649.153 37.7364 649.153Z" fill="white"/>
<path d="M37.7364 697.811C31.0968 697.811 25.7142 692.423 25.7142 685.777C25.7142 679.131 31.0968 673.743 37.7364 673.743C44.3761 673.743 49.7587 679.131 49.7587 685.777C49.7587 692.423 44.3761 697.811 37.7364 697.811Z" fill="white"/>
<path d="M491.483 447.62C491.483 454.266 496.866 459.653 503.506 459.653C510.145 459.653 515.528 454.266 515.528 447.62C515.528 440.974 510.145 435.586 503.506 435.586C496.866 435.586 491.483 440.974 491.483 447.62Z" fill="white"/>
<path d="M438.201 447.62C438.201 454.266 443.584 459.653 450.224 459.653C456.863 459.653 462.246 454.266 462.246 447.62C462.246 440.974 456.863 435.586 450.224 435.586C443.584 435.586 438.201 440.974 438.201 447.62Z" fill="white"/>
<path d="M243.854 640.847C243.854 647.493 249.237 652.881 255.877 652.881C262.516 652.881 267.899 647.493 267.899 640.847C267.899 634.201 262.516 628.813 255.877 628.813C249.237 628.813 243.854 634.201 243.854 640.847Z" fill="white"/>
<path d="M384.943 447.62C384.943 454.266 390.326 459.653 396.966 459.653C403.605 459.653 408.988 454.266 408.988 447.62C408.988 440.974 403.605 435.586 396.966 435.586C390.326 435.586 384.943 440.974 384.943 447.62Z" fill="white"/>
<path d="M204.729 212.429C204.729 219.075 210.112 224.463 216.751 224.463C223.391 224.463 228.773 219.075 228.773 212.429C228.773 205.783 223.391 200.395 216.751 200.395C210.112 200.395 204.729 205.783 204.729 212.429Z" fill="white"/>
<path d="M204.729 253.965C204.729 260.611 210.112 265.999 216.751 265.999C223.391 265.999 228.773 260.611 228.773 253.965C228.773 247.32 223.391 241.932 216.751 241.932C210.112 241.932 204.729 247.32 204.729 253.965Z" fill="white"/>
<path d="M438.201 503.136C438.201 509.782 443.584 515.17 450.224 515.17C456.863 515.17 462.246 509.782 462.246 503.136C462.246 496.49 456.863 491.102 450.224 491.102C443.584 491.102 438.201 496.49 438.201 503.136Z" fill="white"/>
<path d="M384.943 503.136C384.943 509.782 390.326 515.17 396.965 515.17C403.605 515.17 408.988 509.782 408.988 503.136C408.988 496.49 403.605 491.102 396.965 491.102C390.326 491.102 384.943 496.49 384.943 503.136Z" fill="white"/>
<path d="M360 720C260.597 720 180 800.597 180 900C279.403 900 360 819.403 360 720Z" fill="#E14561"/>
<path d="M6.32579 360H0V540H180C180 440.655 102.179 360 6.32579 360Z" fill="#E14561"/>
<path d="M540 540H720V720H540V540Z" fill="#D2E754"/>
<path d="M720 720H693.056C608.579 720 540 788.579 540 873.056V900H720V720Z" fill="#F7F7F7"/>
<path d="M450 900H540V810C540 760.292 499.708 720 450 720C400.292 720 360 760.292 360 810C360 859.708 400.292 900 450 900Z" fill="#88CDEB"/>
<path d="M625 822.091C625 828.769 630.411 834.183 637.086 834.183C643.761 834.183 649.173 828.769 649.173 822.091C649.173 815.414 643.761 810 637.086 810C630.411 810 625 815.414 625 822.091Z" fill="#444FB6"/>
<path d="M658.971 856.075C658.971 862.753 664.382 868.167 671.057 868.167C677.732 868.167 683.143 862.753 683.143 856.075C683.143 849.398 677.732 843.984 671.057 843.984C664.382 843.984 658.971 849.398 658.971 856.075Z" fill="#444FB6"/>
</g>
<defs>
<clipPath id="clip0_114_4174">
<rect width="720" height="900" fill="white" transform="matrix(-1 0 0 1 720 0)"/>
</clipPath>
</defs>
</svg>
