<svg width="48" height="48" viewBox="0 0 48 48" fill="none" xmlns="http://www.w3.org/2000/svg">
<g clip-path="url(#clip0_183_2189)">
<path d="M16.875 46.125H12.5625C9.45591 46.125 6.9375 43.6066 6.9375 40.5V7.5C6.9375 4.39341 9.45591 1.875 12.5625 1.875H35.6146C38.7212 1.875 41.2396 4.39341 41.2396 7.5V18.6563" stroke="white" stroke-width="4" stroke-miterlimit="10" stroke-linecap="round" stroke-linejoin="round"/>
<path d="M14.4271 13.125H33.7396" stroke="white" stroke-width="4" stroke-miterlimit="10" stroke-linecap="round" stroke-linejoin="round"/>
<path d="M14.4271 20.625H26.25" stroke="white" stroke-width="4" stroke-miterlimit="10" stroke-linecap="round" stroke-linejoin="round"/>
<path d="M14.4271 28.125H22.2188" stroke="white" stroke-width="4" stroke-miterlimit="10" stroke-linecap="round" stroke-linejoin="round"/>
<path d="M29.625 29.3406C29.625 26.3376 32.0595 23.9031 35.0625 23.9031C38.0655 23.9031 40.5 26.3376 40.5 29.3406C40.5 32.3437 38.0655 34.7781 35.0625 34.7781C32.0595 34.7781 29.625 32.3437 29.625 29.3406Z" stroke="white" stroke-width="4" stroke-miterlimit="10" stroke-linecap="round" stroke-linejoin="round"/>
<path d="M35.0625 34.8344C40.4896 34.8344 45.0197 38.6858 46.084 43.812V43.7871C46.3313 44.9791 45.4317 46.125 44.2175 46.125H25.9076C24.6934 46.125 23.7938 45.004 24.0411 43.812C25.1054 38.6858 29.6354 34.8344 35.0625 34.8344Z" stroke="white" stroke-width="4" stroke-miterlimit="10" stroke-linecap="round" stroke-linejoin="round"/>
</g>
<defs>
<clipPath id="clip0_183_2189">
<rect width="48" height="48" fill="white"/>
</clipPath>
</defs>
</svg>
