<svg width="180" height="900" viewBox="0 0 180 900" fill="none" xmlns="http://www.w3.org/2000/svg">
<path d="M180 180H-0.000244141C-0.000244141 80.5888 80.5885 0 180 0V180Z" fill="#F6F6F6"/>
<path d="M-0.000244141 360C99.4031 360 180 279.403 180 180H-0.000244141V360Z" fill="#88CDEB"/>
<path d="M-0.000228882 360H180V540H-0.000228882V360Z" fill="#F6F6F6"/>
<path d="M179.976 360.024H151.991C68.1059 360.024 -0.000228882 428.13 -0.000228882 512.015V540H180V360L179.976 360.024Z" fill="#444FB6"/>
<path d="M180 540.024H-0.000228882V568.009C-0.000228882 651.894 68.106 720 151.991 720H179.976V540L180 540.024Z" fill="#D2E754"/>
<path d="M131.674 34.5107C131.674 41.1566 137.057 46.5444 143.696 46.5444C150.336 46.5444 155.718 41.1566 155.718 34.5107C155.718 27.8649 150.336 22.4771 143.696 22.4771C137.057 22.4771 131.674 27.8649 131.674 34.5107Z" fill="#444FB6"/>
<path d="M131.674 90.0034C131.674 96.6492 137.057 102.037 143.696 102.037C150.336 102.037 155.718 96.6492 155.718 90.0034C155.718 83.3576 150.336 77.9697 143.696 77.9697C137.057 77.9697 131.674 83.3576 131.674 90.0034Z" fill="#444FB6"/>
<path d="M131.674 145.52C131.674 152.166 137.057 157.553 143.696 157.553C150.336 157.553 155.718 152.166 155.718 145.52C155.718 138.874 150.336 133.486 143.696 133.486C137.057 133.486 131.674 138.874 131.674 145.52Z" fill="#444FB6"/>
<path d="M63.8544 640.847C63.8544 647.493 69.2371 652.881 75.8766 652.881C82.5161 652.881 87.8988 647.493 87.8988 640.847C87.8988 634.201 82.5161 628.813 75.8766 628.813C69.2371 628.813 63.8544 634.201 63.8544 640.847Z" fill="white"/>
<path d="M24.7289 212.429C24.7289 219.075 30.1117 224.463 36.7511 224.463C43.3906 224.463 48.7733 219.075 48.7733 212.429C48.7733 205.783 43.3906 200.395 36.7511 200.395C30.1117 200.395 24.7289 205.783 24.7289 212.429Z" fill="white"/>
<path d="M24.7289 253.965C24.7289 260.611 30.1117 265.999 36.7511 265.999C43.3906 265.999 48.7733 260.611 48.7733 253.965C48.7733 247.32 43.3906 241.932 36.7511 241.932C30.1117 241.932 24.7289 247.32 24.7289 253.965Z" fill="white"/>
<path d="M129.258 494.034C129.258 500.679 134.641 506.067 141.28 506.067C147.92 506.067 153.302 500.679 153.302 494.034C153.302 487.388 147.92 482 141.28 482C134.641 482 129.258 487.388 129.258 494.034Z" fill="white"/>
<path d="M75.9997 494.034C75.9997 500.679 81.3825 506.067 88.0219 506.067C94.6614 506.067 100.044 500.679 100.044 494.034C100.044 487.388 94.6614 482 88.0219 482C81.3825 482 75.9997 487.388 75.9997 494.034Z" fill="white"/>
<path d="M180 720C180 819.403 99.4031 900 -0.000244141 900C-0.000245326 800.597 80.5964 720 180 720Z" fill="#E14561"/>
</svg>
