<svg width="160" height="85" viewBox="0 0 160 85" fill="none" xmlns="http://www.w3.org/2000/svg">
<path d="M96.6658 31H81.3498V28.228H93.3898V27.22C93.3898 25.3907 92.8298 23.944 91.7098 22.88C90.6085 21.7973 89.0965 21.256 87.1738 21.256C86.5392 21.256 85.9045 21.3213 85.2698 21.452C84.6352 21.564 84.1218 21.7227 83.7298 21.928C83.5245 21.76 83.3378 21.5173 83.1698 21.2C83.0205 20.8827 82.9458 20.5933 82.9458 20.332C82.9458 19.7347 83.3565 19.268 84.1778 18.932C84.9992 18.5773 86.1098 18.4 87.5098 18.4C89.4138 18.4 91.0472 18.7453 92.4098 19.436C93.7725 20.1267 94.8178 21.116 95.5458 22.404C96.2925 23.6733 96.6658 25.1947 96.6658 26.968V31ZM100.041 10.448C100.041 9.96267 100.191 9.59867 100.489 9.356C100.807 9.09466 101.217 8.964 101.721 8.964C101.983 8.964 102.253 8.992 102.533 9.048C102.813 9.104 103.037 9.17867 103.205 9.272V28.228H107.461V31H100.041V10.448ZM106.633 28.228H118.673V31H106.633V28.228ZM122.044 20.024C122.044 19.5387 122.202 19.1747 122.52 18.932C122.837 18.6707 123.248 18.54 123.752 18.54C124.013 18.54 124.284 18.568 124.564 18.624C124.844 18.68 125.068 18.7547 125.236 18.848V21.816C125.74 20.8827 126.617 20.08 127.868 19.408C129.137 18.736 130.677 18.4 132.488 18.4C133.458 18.4 134.41 18.5307 135.344 18.792C136.296 19.0347 137.154 19.464 137.92 20.08C138.704 20.6773 139.32 21.4987 139.768 22.544C140.234 23.5707 140.468 24.868 140.468 26.436V28.228H144.276V31H117.844V28.228H122.044V20.024ZM137.248 26.688C137.248 24.8773 136.8 23.5427 135.904 22.684C135.008 21.8067 133.729 21.368 132.068 21.368C130.649 21.368 129.426 21.6573 128.4 22.236C127.373 22.8147 126.58 23.6267 126.02 24.672C125.478 25.6987 125.208 26.884 125.208 28.228H137.248V26.688ZM156.485 24.952C157.232 26.0533 157.895 27.1547 158.473 28.256V31H143.437V28.228H154.805C154.264 27.332 153.704 26.492 153.125 25.708C152.565 24.9053 152.043 24.2427 151.557 23.72C150.755 22.7867 149.999 22.1427 149.289 21.788C148.599 21.4333 147.889 21.256 147.161 21.256C146.863 21.256 146.583 21.284 146.321 21.34C146.079 21.396 145.827 21.4707 145.565 21.564C145.117 21.0227 144.893 20.4907 144.893 19.968C144.893 19.4827 145.136 19.1 145.621 18.82C146.125 18.54 146.807 18.4 147.665 18.4C148.86 18.4 149.943 18.68 150.913 19.24C151.903 19.8 152.92 20.64 153.965 21.76C154.917 22.7867 155.757 23.8507 156.485 24.952Z" fill="#444FB6"/>
<path d="M96.6658 31V31.3C96.8315 31.3 96.9658 31.1657 96.9658 31H96.6658ZM81.3498 31H81.0498C81.0498 31.1657 81.1841 31.3 81.3498 31.3V31ZM81.3498 28.228V27.928C81.1841 27.928 81.0498 28.0623 81.0498 28.228H81.3498ZM93.3898 28.228V28.528C93.5555 28.528 93.6898 28.3937 93.6898 28.228H93.3898ZM91.7098 22.88L91.4995 23.094L91.5032 23.0975L91.7098 22.88ZM85.2698 21.452L85.322 21.7476L85.3303 21.7458L85.2698 21.452ZM83.7298 21.928L83.5399 22.1602C83.6329 22.2363 83.7625 22.2496 83.869 22.1937L83.7298 21.928ZM83.1698 21.2L82.8981 21.3279L82.9047 21.3404L83.1698 21.2ZM84.1778 18.932L84.2914 19.2097L84.2968 19.2074L84.1778 18.932ZM92.4098 19.436L92.2742 19.7036H92.2742L92.4098 19.436ZM95.5458 22.404L95.2846 22.5516L95.2872 22.5561L95.5458 22.404ZM96.6658 30.7H81.3498V31.3H96.6658V30.7ZM81.6498 31V28.228H81.0498V31H81.6498ZM81.3498 28.528H93.3898V27.928H81.3498V28.528ZM93.6898 28.228V27.22H93.0898V28.228H93.6898ZM93.6898 27.22C93.6898 25.3248 93.107 23.7935 91.9165 22.6625L91.5032 23.0975C92.5526 24.0945 93.0898 25.4565 93.0898 27.22H93.6898ZM91.9201 22.6661C90.7497 21.5155 89.1548 20.956 87.1738 20.956V21.556C89.0381 21.556 90.4673 22.0792 91.4995 23.0939L91.9201 22.6661ZM87.1738 20.956C86.5184 20.956 85.8635 21.0235 85.2093 21.1582L85.3303 21.7458C85.9455 21.6192 86.5599 21.556 87.1738 21.556V20.956ZM85.2177 21.1566C84.5652 21.2717 84.0193 21.4377 83.5906 21.6623L83.869 22.1937C84.2243 22.0076 84.7051 21.8563 85.322 21.7474L85.2177 21.1566ZM83.9198 21.6958C83.7542 21.5603 83.5905 21.3534 83.435 21.0596L82.9047 21.3404C83.0852 21.6813 83.2948 21.9597 83.5399 22.1602L83.9198 21.6958ZM83.4413 21.0723C83.3046 20.7819 83.2458 20.5368 83.2458 20.332H82.6458C82.6458 20.6499 82.7364 20.9834 82.8984 21.3277L83.4413 21.0723ZM83.2458 20.332C83.2458 19.913 83.5192 19.5256 84.2914 19.2097L84.0642 18.6543C83.1938 19.0104 82.6458 19.5563 82.6458 20.332H83.2458ZM84.2968 19.2074C85.0654 18.8755 86.1301 18.7 87.5098 18.7V18.1C86.0895 18.1 84.933 18.2791 84.0589 18.6566L84.2968 19.2074ZM87.5098 18.7C89.3781 18.7 90.9627 19.0388 92.2742 19.7036L92.5455 19.1684C91.1317 18.4518 89.4496 18.1 87.5098 18.1V18.7ZM92.2742 19.7036C93.5859 20.3684 94.5868 21.3169 95.2847 22.5516L95.807 22.2564C95.0489 20.9151 93.9591 19.8849 92.5455 19.1684L92.2742 19.7036ZM95.2872 22.5561C96.0017 23.7707 96.3658 25.2372 96.3658 26.968H96.9658C96.9658 25.1521 96.5833 23.5759 95.8044 22.2519L95.2872 22.5561ZM96.3658 26.968V31H96.9658V26.968H96.3658ZM100.489 9.356L100.679 9.58884L100.68 9.58758L100.489 9.356ZM103.205 9.272H103.505C103.505 9.16305 103.446 9.06266 103.351 9.00975L103.205 9.272ZM103.205 28.228H102.905C102.905 28.3937 103.04 28.528 103.205 28.528V28.228ZM107.461 28.228H107.761C107.761 28.0623 107.627 27.928 107.461 27.928V28.228ZM107.461 31V31.3C107.627 31.3 107.761 31.1657 107.761 31H107.461ZM100.041 31H99.7414C99.7414 31.1657 99.8757 31.3 100.041 31.3V31ZM100.341 10.448C100.341 10.0273 100.468 9.76008 100.679 9.58883L100.3 9.12316C99.9136 9.43725 99.7414 9.89805 99.7414 10.448H100.341ZM100.68 9.58758C100.932 9.37981 101.271 9.264 101.721 9.264V8.664C101.164 8.664 100.681 8.80952 100.299 9.12442L100.68 9.58758ZM101.721 9.264C101.961 9.264 102.212 9.28969 102.475 9.34217L102.592 8.75383C102.295 8.6943 102.004 8.664 101.721 8.664V9.264ZM102.475 9.34217C102.737 9.39474 102.929 9.46139 103.06 9.53425L103.351 9.00975C103.146 8.89594 102.889 8.81325 102.592 8.75383L102.475 9.34217ZM102.905 9.272V28.228H103.505V9.272H102.905ZM103.205 28.528H107.461V27.928H103.205V28.528ZM107.161 28.228V31H107.761V28.228H107.161ZM107.461 30.7H100.041V31.3H107.461V30.7ZM100.341 31V10.448H99.7414V31H100.341ZM106.633 28.228V27.928C106.467 27.928 106.333 28.0623 106.333 28.228H106.633ZM118.673 28.228H118.973C118.973 28.0623 118.838 27.928 118.673 27.928V28.228ZM118.673 31V31.3C118.838 31.3 118.973 31.1657 118.973 31H118.673ZM106.633 31H106.333C106.333 31.1657 106.467 31.3 106.633 31.3V31ZM106.633 28.528H118.673V27.928H106.633V28.528ZM118.373 28.228V31H118.973V28.228H118.373ZM118.673 30.7H106.633V31.3H118.673V30.7ZM106.933 31V28.228H106.333V31H106.933ZM122.52 18.932L122.702 19.1705L122.71 19.1636L122.52 18.932ZM124.564 18.624L124.623 18.3298H124.623L124.564 18.624ZM125.236 18.848H125.536C125.536 18.739 125.477 18.6387 125.381 18.5858L125.236 18.848ZM125.236 21.816H124.936C124.936 21.9534 125.029 22.0732 125.162 22.1069C125.295 22.1405 125.434 22.0794 125.5 21.9585L125.236 21.816ZM127.868 19.408L127.727 19.1429L127.726 19.1437L127.868 19.408ZM135.344 18.792L135.263 19.081L135.27 19.0827L135.344 18.792ZM137.92 20.08L137.732 20.3138L137.738 20.3186L137.92 20.08ZM139.768 22.544L139.492 22.6622L139.495 22.6681L139.768 22.544ZM140.468 28.228H140.168C140.168 28.3937 140.302 28.528 140.468 28.528V28.228ZM144.276 28.228H144.576C144.576 28.0623 144.441 27.928 144.276 27.928V28.228ZM144.276 31V31.3C144.441 31.3 144.576 31.1657 144.576 31H144.276ZM117.844 31H117.544C117.544 31.1657 117.678 31.3 117.844 31.3V31ZM117.844 28.228V27.928C117.678 27.928 117.544 28.0623 117.544 28.228H117.844ZM122.044 28.228V28.528C122.209 28.528 122.344 28.3937 122.344 28.228H122.044ZM135.904 22.684L135.694 22.8984L135.696 22.9006L135.904 22.684ZM128.4 22.236L128.252 21.9747L128.4 22.236ZM126.02 24.672L125.755 24.5303L125.754 24.5321L126.02 24.672ZM125.208 28.228H124.908C124.908 28.3937 125.042 28.528 125.208 28.528V28.228ZM137.248 28.228V28.528C137.413 28.528 137.548 28.3937 137.548 28.228H137.248ZM122.344 20.024C122.344 19.6097 122.475 19.3439 122.702 19.1703L122.337 18.6937C121.93 19.0055 121.744 19.4676 121.744 20.024H122.344ZM122.71 19.1636C122.963 18.9558 123.301 18.84 123.752 18.84V18.24C123.194 18.24 122.711 18.3855 122.329 18.7004L122.71 19.1636ZM123.752 18.84C123.992 18.84 124.242 18.8657 124.505 18.9182L124.623 18.3298C124.325 18.2703 124.034 18.24 123.752 18.24V18.84ZM124.505 18.9182C124.768 18.9707 124.959 19.0374 125.09 19.1102L125.381 18.5858C125.177 18.4719 124.92 18.3893 124.623 18.3298L124.505 18.9182ZM124.936 18.848V21.816H125.536V18.848H124.936ZM125.5 21.9585C125.968 21.0916 126.794 20.3257 128.01 19.6723L127.726 19.1437C126.44 19.8343 125.512 20.6737 124.972 21.6735L125.5 21.9585ZM128.008 19.6731C129.224 19.0292 130.713 18.7 132.488 18.7V18.1C130.641 18.1 129.05 18.4428 127.727 19.1429L128.008 19.6731ZM132.488 18.7C133.431 18.7 134.356 18.8269 135.263 19.0809L135.425 18.5031C134.465 18.2344 133.486 18.1 132.488 18.1V18.7ZM135.27 19.0827C136.18 19.3148 137 19.7246 137.732 20.3137L138.108 19.8463C137.309 19.2034 136.411 18.7546 135.418 18.5013L135.27 19.0827ZM137.738 20.3186C138.475 20.88 139.061 21.657 139.492 22.6622L140.043 22.4258C139.578 21.3403 138.933 20.4746 138.101 19.8414L137.738 20.3186ZM139.495 22.6681C139.938 23.6437 140.168 24.8952 140.168 26.436H140.768C140.768 24.8408 140.531 23.4976 140.041 22.4199L139.495 22.6681ZM140.168 26.436V28.228H140.768V26.436H140.168ZM140.468 28.528H144.276V27.928H140.468V28.528ZM143.976 28.228V31H144.576V28.228H143.976ZM144.276 30.7H117.844V31.3H144.276V30.7ZM118.144 31V28.228H117.544V31H118.144ZM117.844 28.528H122.044V27.928H117.844V28.528ZM122.344 28.228V20.024H121.744V28.228H122.344ZM137.548 26.688C137.548 24.8333 137.089 23.4043 136.111 22.4674L135.696 22.9006C136.51 23.681 136.948 24.9214 136.948 26.688H137.548ZM136.114 22.4696C135.145 21.5214 133.781 21.068 132.068 21.068V21.668C133.677 21.668 134.87 22.0919 135.694 22.8984L136.114 22.4696ZM132.068 21.068C130.608 21.068 129.332 21.3659 128.252 21.9747L128.547 22.4973C129.52 21.9487 130.69 21.668 132.068 21.668V21.068ZM128.252 21.9747C127.176 22.5815 126.342 23.4351 125.755 24.5303L126.284 24.8137C126.817 23.8182 127.57 23.0479 128.547 22.4973L128.252 21.9747ZM125.754 24.5321C125.187 25.6082 124.908 26.843 124.908 28.228H125.508C125.508 26.925 125.77 25.7891 126.285 24.8119L125.754 24.5321ZM125.208 28.528H137.248V27.928H125.208V28.528ZM137.548 28.228V26.688H136.948V28.228H137.548ZM156.485 24.952L156.235 25.1174L156.237 25.1203L156.485 24.952ZM158.473 28.256H158.773C158.773 28.2074 158.762 28.1595 158.739 28.1165L158.473 28.256ZM158.473 31V31.3C158.639 31.3 158.773 31.1657 158.773 31H158.473ZM143.437 31H143.137C143.137 31.1657 143.272 31.3 143.437 31.3V31ZM143.437 28.228V27.928C143.272 27.928 143.137 28.0623 143.137 28.228H143.437ZM154.805 28.228V28.528C154.914 28.528 155.014 28.4697 155.067 28.3754C155.12 28.2811 155.118 28.1655 155.062 28.0729L154.805 28.228ZM153.125 25.708L152.879 25.8797L152.884 25.8862L153.125 25.708ZM151.557 23.72L151.33 23.9158L151.338 23.9241L151.557 23.72ZM149.289 21.788L149.152 22.0549L149.155 22.0563L149.289 21.788ZM146.321 21.34L146.259 21.0466L146.254 21.0477L146.321 21.34ZM145.565 21.564L145.334 21.7553C145.415 21.8525 145.547 21.889 145.666 21.8465L145.565 21.564ZM145.621 18.82L145.476 18.5577L145.472 18.5601L145.621 18.82ZM150.913 19.24L150.763 19.4999L150.766 19.5011L150.913 19.24ZM153.965 21.76L154.185 21.556L154.185 21.5553L153.965 21.76ZM156.237 25.1203C156.978 26.213 157.635 27.3048 158.208 28.3955L158.739 28.1165C158.155 27.0046 157.486 25.8936 156.734 24.7837L156.237 25.1203ZM158.173 28.256V31H158.773V28.256H158.173ZM158.473 30.7H143.437V31.3H158.473V30.7ZM143.737 31V28.228H143.137V31H143.737ZM143.437 28.528H154.805V27.928H143.437V28.528ZM155.062 28.0729C154.516 27.1695 153.951 26.3218 153.367 25.5298L152.884 25.8862C153.457 26.6622 154.012 27.4945 154.549 28.3831L155.062 28.0729ZM153.371 25.5363C152.806 24.7261 152.275 24.0517 151.777 23.5159L151.338 23.9241C151.811 24.4336 152.325 25.0845 152.879 25.8797L153.371 25.5363ZM151.785 23.5244C150.969 22.5758 150.183 21.8992 149.424 21.5197L149.155 22.0563C149.815 22.3861 150.54 22.9976 151.33 23.9156L151.785 23.5244ZM149.426 21.5211C148.696 21.1462 147.94 20.956 147.161 20.956V21.556C147.839 21.556 148.501 21.7205 149.152 22.0549L149.426 21.5211ZM147.161 20.956C146.844 20.956 146.543 20.9858 146.259 21.0467L146.384 21.6333C146.623 21.5822 146.881 21.556 147.161 21.556V20.956ZM146.254 21.0477C145.999 21.1066 145.736 21.1847 145.465 21.2815L145.666 21.8465C145.918 21.7567 146.159 21.6854 146.389 21.6323L146.254 21.0477ZM145.797 21.3727C145.378 20.8666 145.193 20.4 145.193 19.968H144.593C144.593 20.5813 144.857 21.1787 145.334 21.7553L145.797 21.3727ZM145.193 19.968C145.193 19.6083 145.362 19.3162 145.771 19.0799L145.472 18.5601C144.91 18.8838 144.593 19.357 144.593 19.968H145.193ZM145.767 19.0822C146.21 18.8362 146.835 18.7 147.665 18.7V18.1C146.779 18.1 146.041 18.2438 145.476 18.5578L145.767 19.0822ZM147.665 18.7C148.811 18.7 149.841 18.9679 150.764 19.4999L151.063 18.9801C150.044 18.3921 148.909 18.1 147.665 18.1V18.7ZM150.766 19.5011C151.721 20.0418 152.715 20.8598 153.746 21.9647L154.185 21.5553C153.125 20.4202 152.085 19.5582 151.061 18.9789L150.766 19.5011ZM153.745 21.964C154.687 22.9794 155.517 24.0305 156.235 25.1174L156.736 24.7866C155.998 23.6708 155.148 22.594 154.185 21.556L153.745 21.964Z" fill="#444FB6"/>
<path d="M34.0337 37C27.3879 37 22 42.3828 22 49.0223C22 55.6617 27.3879 61.0444 34.0337 61.0444C40.6795 61.0444 46.0674 55.6617 46.0674 49.0223C46.0674 42.3828 40.6795 37 34.0337 37Z" fill="#88CDEB"/>
<path d="M24 37L0 37L-1.04907e-06 61C13.2538 61 24 50.2538 24 37Z" fill="#444FB6"/>
<path d="M58 36H46L46 48C46 54.6278 51.3722 60 58 60C64.6278 60 70 54.6278 70 48C70 41.3722 64.6278 36 58 36Z" fill="#D2E754"/>
<path d="M33.9706 36.9411C43.3424 27.5693 43.3424 12.3718 33.9706 3C24.5987 12.3718 24.5987 27.5693 33.9706 36.9411Z" fill="#E14561"/>
<path d="M80.7507 40.1H85.0977V47.633H91.7667V40.1H96.1137V59H91.7667V51.089H85.0977V59H80.7507V40.1ZM104.68 59.27C103.798 59.27 103.006 59.081 102.304 58.703C101.602 58.325 101.053 57.812 100.657 57.164C100.261 56.498 100.063 55.751 100.063 54.923C100.063 53.537 100.621 52.475 101.737 51.737C102.853 50.999 104.455 50.63 106.543 50.63H108.433V50.09C108.433 49.478 108.235 49.001 107.839 48.659C107.443 48.317 106.903 48.146 106.219 48.146C105.409 48.146 104.626 48.281 103.87 48.551C103.132 48.821 102.52 49.19 102.034 49.658L100.387 47.471C101.161 46.787 102.07 46.247 103.114 45.851C104.176 45.437 105.247 45.23 106.327 45.23C108.163 45.23 109.612 45.662 110.674 46.526C111.736 47.372 112.267 48.533 112.267 50.009V56.084C112.267 56.516 112.303 57.029 112.375 57.623C112.447 58.217 112.528 58.676 112.618 59H109.189C109.081 58.748 109 58.523 108.946 58.325C108.892 58.127 108.847 57.848 108.811 57.488H108.757C107.749 58.676 106.39 59.27 104.68 59.27ZM105.706 56.435C106.498 56.435 107.146 56.237 107.65 55.841C108.172 55.427 108.433 54.905 108.433 54.275V53.141H106.435C105.589 53.141 104.941 53.294 104.491 53.6C104.041 53.906 103.816 54.347 103.816 54.923C103.816 55.409 103.978 55.787 104.302 56.057C104.626 56.309 105.094 56.435 105.706 56.435ZM121.02 59.27C119.796 59.27 118.725 59.027 117.807 58.541C116.889 58.055 116.25 57.407 115.89 56.597L118.266 54.977C118.59 55.427 118.995 55.787 119.481 56.057C119.967 56.309 120.462 56.435 120.966 56.435C121.524 56.435 121.983 56.3 122.343 56.03C122.703 55.76 122.883 55.418 122.883 55.004C122.883 54.788 122.829 54.617 122.721 54.491C122.631 54.347 122.442 54.203 122.154 54.059C121.866 53.915 121.407 53.717 120.777 53.465C119.085 52.799 117.897 52.142 117.213 51.494C116.547 50.828 116.214 50.009 116.214 49.037C116.214 47.885 116.682 46.967 117.618 46.283C118.554 45.581 119.796 45.23 121.344 45.23C122.406 45.23 123.351 45.428 124.179 45.824C125.025 46.202 125.718 46.76 126.258 47.498L124.044 49.145C123.432 48.425 122.595 48.065 121.533 48.065C121.047 48.065 120.669 48.146 120.399 48.308C120.147 48.47 120.021 48.695 120.021 48.983C120.021 49.199 120.075 49.379 120.183 49.523C120.291 49.649 120.507 49.802 120.831 49.982C121.173 50.144 121.74 50.378 122.532 50.684C123.648 51.116 124.503 51.53 125.097 51.926C125.691 52.322 126.105 52.745 126.339 53.195C126.591 53.627 126.717 54.167 126.717 54.815C126.717 55.697 126.474 56.48 125.988 57.164C125.52 57.83 124.854 58.352 123.99 58.73C123.126 59.09 122.136 59.27 121.02 59.27ZM134.202 59.27C133.32 59.27 132.528 59.081 131.826 58.703C131.124 58.325 130.575 57.812 130.179 57.164C129.783 56.498 129.585 55.751 129.585 54.923C129.585 53.537 130.143 52.475 131.259 51.737C132.375 50.999 133.977 50.63 136.065 50.63H137.955V50.09C137.955 49.478 137.757 49.001 137.361 48.659C136.965 48.317 136.425 48.146 135.741 48.146C134.931 48.146 134.148 48.281 133.392 48.551C132.654 48.821 132.042 49.19 131.556 49.658L129.909 47.471C130.683 46.787 131.592 46.247 132.636 45.851C133.698 45.437 134.769 45.23 135.849 45.23C137.685 45.23 139.134 45.662 140.196 46.526C141.258 47.372 141.789 48.533 141.789 50.009V56.084C141.789 56.516 141.825 57.029 141.897 57.623C141.969 58.217 142.05 58.676 142.14 59H138.711C138.603 58.748 138.522 58.523 138.468 58.325C138.414 58.127 138.369 57.848 138.333 57.488H138.279C137.271 58.676 135.912 59.27 134.202 59.27ZM135.228 56.435C136.02 56.435 136.668 56.237 137.172 55.841C137.694 55.427 137.955 54.905 137.955 54.275V53.141H135.957C135.111 53.141 134.463 53.294 134.013 53.6C133.563 53.906 133.338 54.347 133.338 54.923C133.338 55.409 133.5 55.787 133.824 56.057C134.148 56.309 134.616 56.435 135.228 56.435ZM151.135 59.27C149.353 59.27 147.958 58.631 146.95 57.353C145.942 56.075 145.438 54.302 145.438 52.034C145.438 50.666 145.672 49.469 146.14 48.443C146.608 47.417 147.274 46.625 148.138 46.067C149.02 45.509 150.046 45.23 151.216 45.23C152.008 45.23 152.683 45.356 153.241 45.608C153.817 45.842 154.33 46.22 154.78 46.742H154.834V38.966H158.668V55.355C158.668 57.299 158.695 58.514 158.749 59H155.131C155.113 58.73 155.104 58.172 155.104 57.326H155.05C154.636 57.902 154.069 58.37 153.349 58.73C152.647 59.09 151.909 59.27 151.135 59.27ZM151.918 56.354C152.8 56.354 153.502 56.111 154.024 55.625C154.564 55.121 154.834 54.455 154.834 53.627V50.738C154.834 50 154.555 49.37 153.997 48.848C153.439 48.326 152.746 48.065 151.918 48.065C151.036 48.065 150.37 48.407 149.92 49.091C149.47 49.775 149.245 50.774 149.245 52.088C149.245 53.474 149.47 54.536 149.92 55.274C150.37 55.994 151.036 56.354 151.918 56.354Z" fill="#444FB6"/>
<rect x="22" y="61" width="24" height="24" fill="#F6F6F6"/>
</svg>
