<svg width="726" height="900" viewBox="0 0 726 900" fill="none" xmlns="http://www.w3.org/2000/svg">
<g clip-path="url(#clip0_4_889)">
<path d="M182.517 900V718.536H1.12506C1.12506 818.748 82.3448 900 182.517 900Z" fill="#444FB6"/>
<path d="M1.12506 540.005V721.469H182.517C182.517 621.329 101.249 540.005 1.12506 540.005Z" fill="#88CDEB"/>
<path d="M544.608 181.464H726V0C625.828 0 544.608 81.2523 544.608 181.464Z" fill="#F6F6F6"/>
<path d="M544.847 362.189C544.847 261.977 463.627 180.725 363.455 180.725C363.455 280.937 444.675 362.189 544.847 362.189Z" fill="#F7F7F7"/>
<path d="M544.608 362.285H726C726 262.073 644.78 180.82 544.608 180.82V362.285Z" fill="#E14561"/>
<path d="M363.455 0H544.847V181.464H363.455V0Z" fill="#88CDEB"/>
<path d="M182.278 0H363.67V181.464H182.278V0Z" fill="#F7F7F7"/>
<path d="M182.517 180.725H1.12506V362.189H96.3384C143.897 362.189 182.517 323.555 182.517 275.976V180.725Z" fill="#88CDEB"/>
<path d="M182.302 362.285C282.474 362.285 363.694 281.032 363.694 180.82H182.302V362.285Z" fill="#444FB6"/>
<path d="M1.12506 0H182.517V181.464H1.12506V0Z" fill="#E14561"/>
<path d="M544.608 359.28H726V540.744H544.608V359.28Z" fill="#F6F6F6"/>
<path d="M726 359.28H697.798C613.265 359.28 544.632 427.94 544.632 512.507V540.72H726V359.256V359.28Z" fill="#444FB6"/>
<path d="M454.139 721.469H544.823V630.749C544.823 580.643 504.225 540.029 454.139 540.029C404.053 540.029 363.455 580.643 363.455 630.749C363.455 680.855 404.053 721.469 454.139 721.469Z" fill="#F7F7F7"/>
<path d="M544.608 540.1H726V721.564H544.608V540.1Z" fill="#D2E754"/>
<path d="M363.455 359.28H544.847V540.744H363.455V359.28Z" fill="#E14561"/>
<path d="M182.278 359.28H363.67V540.744H182.278V359.28Z" fill="#D2E754"/>
<path d="M363.67 359.28H335.468C250.935 359.28 182.302 427.94 182.302 512.507V540.72H363.694V359.256L363.67 359.28Z" fill="#F7F7F7"/>
<path d="M182.278 540.1H363.67V721.564H182.278V540.1Z" fill="#444FB6"/>
<path d="M363.67 540.1H182.278V568.313C182.278 652.88 250.911 721.541 335.444 721.541H363.646V540.076L363.67 540.1Z" fill="#D2E754"/>
<path d="M726 718.536H698.847C613.718 718.536 544.608 787.673 544.608 872.836V900H726V718.536Z" fill="#F7F7F7"/>
<path d="M454 900H545V811C545 761.844 504.261 722 454 722C403.739 722 363 761.844 363 811C363 860.156 403.739 900 454 900Z" fill="#88CDEB"/>
<path d="M315.086 34.6759C315.086 41.3535 320.497 46.7672 327.172 46.7672C333.847 46.7672 339.259 41.3535 339.259 34.6759C339.259 27.9983 333.847 22.5847 327.172 22.5847C320.497 22.5847 315.086 27.9983 315.086 34.6759Z" fill="#D2E754"/>
<path d="M261.519 34.6759C261.519 41.3535 266.931 46.7672 273.606 46.7672C280.281 46.7672 285.692 41.3535 285.692 34.6759C285.692 27.9983 280.281 22.5847 273.606 22.5847C266.931 22.5847 261.519 27.9983 261.519 34.6759Z" fill="#D2E754"/>
<path d="M207.977 34.6759C207.977 41.3535 213.388 46.7672 220.063 46.7672C226.738 46.7672 232.15 41.3535 232.15 34.6759C232.15 27.9983 226.738 22.5847 220.063 22.5847C213.388 22.5847 207.977 27.9983 207.977 34.6759Z" fill="#D2E754"/>
<path d="M315.086 90.434C315.086 97.1117 320.497 102.525 327.172 102.525C333.847 102.525 339.259 97.1117 339.259 90.434C339.259 83.7564 333.847 78.3428 327.172 78.3428C320.497 78.3428 315.086 83.7564 315.086 90.434Z" fill="#D2E754"/>
<path d="M207.977 90.434C207.977 97.1117 213.388 102.525 220.063 102.525C226.738 102.525 232.15 97.1117 232.15 90.434C232.15 83.7564 226.738 78.3428 220.063 78.3428C213.388 78.3428 207.977 83.7564 207.977 90.434Z" fill="#D2E754"/>
<path d="M315.086 146.216C315.086 152.894 320.497 158.307 327.172 158.307C333.847 158.307 339.259 152.894 339.259 146.216C339.259 139.538 333.847 134.125 327.172 134.125C320.497 134.125 315.086 139.538 315.086 146.216Z" fill="#D2E754"/>
<path d="M261.519 146.216C261.519 152.894 266.931 158.307 273.606 158.307C280.281 158.307 285.692 152.894 285.692 146.216C285.692 139.538 280.281 134.125 273.606 134.125C266.931 134.125 261.519 139.538 261.519 146.216Z" fill="#D2E754"/>
<path d="M207.977 146.216C207.977 152.894 213.388 158.307 220.063 158.307C226.738 158.307 232.15 152.894 232.15 146.216C232.15 139.538 226.738 134.125 220.063 134.125C213.388 134.125 207.977 139.538 207.977 146.216Z" fill="#D2E754"/>
<path d="M496.263 394.003C496.263 400.681 501.674 406.095 508.349 406.095C515.024 406.095 520.436 400.681 520.436 394.003C520.436 387.326 515.024 381.912 508.349 381.912C501.674 381.912 496.263 387.326 496.263 394.003Z" fill="white"/>
<path d="M442.696 394.003C442.696 400.681 448.108 406.095 454.783 406.095C461.458 406.095 466.869 400.681 466.869 394.003C466.869 387.326 461.458 381.912 454.783 381.912C448.108 381.912 442.696 387.326 442.696 394.003Z" fill="white"/>
<path d="M587.018 765.541C587.018 772.219 592.43 777.633 599.105 777.633C605.78 777.633 611.191 772.219 611.191 765.541C611.191 758.864 605.78 753.45 599.105 753.45C592.43 753.45 587.018 758.864 587.018 765.541Z" fill="#444FB6"/>
<path d="M620.989 799.526C620.989 806.203 626.4 811.617 633.075 811.617C639.75 811.617 645.162 806.203 645.162 799.526C645.162 792.848 639.75 787.434 633.075 787.434C626.4 787.434 620.989 792.848 620.989 799.526Z" fill="#444FB6"/>
<path d="M666.069 133.958C666.069 140.635 671.48 146.049 678.155 146.049C684.83 146.049 690.241 140.635 690.241 133.958C690.241 127.28 684.83 121.867 678.155 121.867C671.48 121.867 666.069 127.28 666.069 133.958Z" fill="#444FB6"/>
<path d="M623.158 133.958C623.158 140.635 628.57 146.049 635.245 146.049C641.92 146.049 647.331 140.635 647.331 133.958C647.331 127.28 641.92 121.867 635.245 121.867C628.57 121.867 623.158 127.28 623.158 133.958Z" fill="#444FB6"/>
<path d="M38.481 599.96C31.8059 599.96 26.3946 594.547 26.3946 587.869C26.3946 581.191 31.8059 575.778 38.481 575.778C45.1562 575.778 50.5674 581.191 50.5674 587.869C50.5674 594.547 45.1562 599.96 38.481 599.96Z" fill="white"/>
<path d="M26.3946 36.1784C26.3946 42.856 31.8061 48.2697 38.481 48.2697C45.156 48.2697 50.5674 42.856 50.5674 36.1784C50.5674 29.5008 45.156 24.0872 38.481 24.0872C31.8061 24.0872 26.3946 29.5008 26.3946 36.1784Z" fill="white"/>
<path d="M38.481 648.85C31.8059 648.85 26.3946 643.436 26.3946 636.759C26.3946 630.081 31.8059 624.667 38.481 624.667C45.1562 624.667 50.5674 630.081 50.5674 636.759C50.5674 643.436 45.1562 648.85 38.481 648.85Z" fill="white"/>
<path d="M38.481 697.74C31.8059 697.74 26.3946 692.326 26.3946 685.648C26.3946 678.971 31.8059 673.557 38.481 673.557C45.1562 673.557 50.5674 678.971 50.5674 685.648C50.5674 692.326 45.1562 697.74 38.481 697.74Z" fill="white"/>
<path d="M496.263 449.762C496.263 456.439 501.674 461.853 508.349 461.853C515.024 461.853 520.436 456.439 520.436 449.762C520.436 443.084 515.024 437.67 508.349 437.67C501.674 437.67 496.263 443.084 496.263 449.762Z" fill="white"/>
<path d="M442.696 449.762C442.696 456.439 448.108 461.853 454.783 461.853C461.458 461.853 466.869 456.439 466.869 449.762C466.869 443.084 461.458 437.67 454.783 437.67C448.108 437.67 442.696 443.084 442.696 449.762Z" fill="white"/>
<path d="M247.311 643.913C247.311 650.591 252.723 656.005 259.398 656.005C266.073 656.005 271.484 650.591 271.484 643.913C271.484 637.236 266.073 631.822 259.398 631.822C252.723 631.822 247.311 637.236 247.311 643.913Z" fill="white"/>
<path d="M389.154 449.762C389.154 456.439 394.565 461.853 401.24 461.853C407.915 461.853 413.327 456.439 413.327 449.762C413.327 443.084 407.915 437.67 401.24 437.67C394.565 437.67 389.154 443.084 389.154 449.762Z" fill="white"/>
<path d="M207.977 213.445C207.977 220.123 213.388 225.537 220.063 225.537C226.738 225.537 232.15 220.123 232.15 213.445C232.15 206.768 226.738 201.354 220.063 201.354C213.388 201.354 207.977 206.768 207.977 213.445Z" fill="white"/>
<path d="M207.977 255.18C207.977 261.858 213.388 267.272 220.063 267.272C226.738 267.272 232.15 261.858 232.15 255.18C232.15 248.503 226.738 243.089 220.063 243.089C213.388 243.089 207.977 248.503 207.977 255.18Z" fill="white"/>
<path d="M442.696 505.543C442.696 512.221 448.108 517.635 454.783 517.635C461.458 517.635 466.869 512.221 466.869 505.543C466.869 498.866 461.458 493.452 454.783 493.452C448.108 493.452 442.696 498.866 442.696 505.543Z" fill="white"/>
<path d="M389.154 505.543C389.154 512.221 394.565 517.635 401.24 517.635C407.915 517.635 413.327 512.221 413.327 505.543C413.327 498.866 407.915 493.452 401.24 493.452C394.565 493.452 389.154 498.866 389.154 505.543Z" fill="white"/>
<path d="M182.302 900C282.474 900 363.694 818.748 363.694 718.536C263.522 718.536 182.302 799.788 182.302 900Z" fill="#E14561"/>
<path d="M7.13254 361.14H0.743622V536.618H182.54C182.54 439.769 103.943 361.14 7.13254 361.14Z" fill="#E14561"/>
</g>
<defs>
<clipPath id="clip0_4_889">
<rect width="726" height="900" fill="white" transform="matrix(-1 0 0 1 726 0)"/>
</clipPath>
</defs>
</svg>
