<svg width="180" height="900" viewBox="0 0 180 900" fill="none" xmlns="http://www.w3.org/2000/svg">
<g clip-path="url(#clip0_84_3175)">
<path d="M-0.000244141 720L180 720L180 540L-0.000228405 540L-0.000244141 720Z" fill="#F6F6F6"/>
<path d="M-0.000228405 540L-0.000244141 720C99.411 720 180 639.411 180 540L-0.000228405 540Z" fill="#88CDEB"/>
<path d="M-0.000228882 360L180 360L180 180L-0.000213146 180L-0.000228882 360Z" fill="#E14561"/>
<path d="M78.2015 216.864C78.2015 210.218 83.5842 204.83 90.2237 204.83C96.8631 204.83 102.246 210.218 102.246 216.864C102.246 223.51 96.8631 228.897 90.2236 228.897C83.5842 228.897 78.2015 223.51 78.2015 216.864Z" fill="white"/>
<path d="M24.9434 216.864C24.9434 210.218 30.3261 204.83 36.9656 204.83C43.6051 204.83 48.9878 210.218 48.9878 216.864C48.9878 223.51 43.6051 228.897 36.9656 228.897C30.3261 228.897 24.9434 223.51 24.9434 216.864Z" fill="white"/>
<path d="M131.483 327.873C131.483 321.227 136.866 315.839 143.505 315.839C150.145 315.839 155.528 321.227 155.528 327.873C155.528 334.519 150.145 339.906 143.505 339.906C136.866 339.906 131.483 334.519 131.483 327.873Z" fill="white"/>
<path d="M78.2015 327.873C78.2015 321.227 83.5842 315.839 90.2237 315.839C96.8631 315.839 102.246 321.227 102.246 327.873C102.246 334.519 96.8631 339.906 90.2236 339.906C83.5842 339.906 78.2015 334.519 78.2015 327.873Z" fill="white"/>
<path d="M131.483 272.38C131.483 265.734 136.866 260.346 143.505 260.346C150.145 260.346 155.528 265.734 155.528 272.38C155.528 279.026 150.145 284.414 143.505 284.414C136.866 284.414 131.483 279.026 131.483 272.38Z" fill="white"/>
<path d="M78.2015 272.38C78.2015 265.734 83.5842 260.346 90.2237 260.346C96.8631 260.346 102.246 265.734 102.246 272.38C102.246 279.026 96.8631 284.414 90.2236 284.414C83.5842 284.414 78.2015 279.026 78.2015 272.38Z" fill="white"/>
<path d="M24.9432 272.38C24.9432 265.734 30.3259 260.346 36.9654 260.346C43.6048 260.346 48.9876 265.734 48.9875 272.38C48.9875 279.026 43.6048 284.414 36.9654 284.414C30.3259 284.414 24.9432 279.026 24.9432 272.38Z" fill="white"/>
<path d="M-0.000244141 180C99.4031 180 180 99.4033 180 0C80.5964 -1.18537e-06 -0.000242955 80.5967 -0.000244141 180Z" fill="#444FB6"/>
<path d="M89.9997 540L180 540L180 450C180 400.292 139.708 360 89.9998 360C40.2915 360 -0.000247663 400.292 -0.000252009 450C-0.000256354 499.708 40.2915 540 89.9997 540Z" fill="#D2E754"/>
<path d="M-0.000228882 900L180 900L180 720L-0.000213146 720L-0.000228882 900Z" fill="#444FB6"/>
<path d="M119 767.034C119 760.388 124.382 755 131.022 755C137.661 755 143.044 760.388 143.044 767.034C143.044 773.68 137.661 779.067 131.022 779.067C124.382 779.067 119 773.68 119 767.034Z" fill="white"/>
<path d="M119 810.034C119 803.388 124.382 798 131.022 798C137.661 798 143.044 803.388 143.044 810.034C143.044 816.68 137.661 822.067 131.022 822.067C124.382 822.067 119 816.68 119 810.034Z" fill="white"/>
<path d="M119 853.034C119 846.388 124.382 841 131.022 841C137.661 841 143.044 846.388 143.044 853.034C143.044 859.68 137.661 865.067 131.022 865.067C124.382 865.067 119 859.68 119 853.034Z" fill="white"/>
</g>
<defs>
<clipPath id="clip0_84_3175">
<rect width="180" height="1080" fill="white" transform="translate(180 1080) rotate(-180)"/>
</clipPath>
</defs>
</svg>
