<svg width="93" height="93" viewBox="0 0 93 93" fill="none" xmlns="http://www.w3.org/2000/svg">
<path d="M38.7316 7.74953C21.6706 7.74953 7.74927 21.643 7.74927 38.7071C7.74927 55.7712 21.6706 69.6951 38.7316 69.6951C45.8648 69.6951 52.4257 67.24 57.6674 63.1602L78.5769 84.0507C78.9326 84.4235 79.3591 84.7217 79.8315 84.9276C80.3038 85.1335 80.8125 85.2431 81.3277 85.2498C81.8429 85.2566 82.3543 85.1603 82.8319 84.9669C83.3095 84.7735 83.7437 84.4869 84.109 84.1235C84.4744 83.7601 84.7635 83.3276 84.9596 82.8511C85.1556 82.3745 85.2546 81.8633 85.2506 81.348C85.2467 80.8326 85.1401 80.3233 84.9368 79.8498C84.7336 79.3762 84.4379 78.9481 84.0671 78.5903L63.15 57.669C67.2279 52.4189 69.6838 45.846 69.6838 38.7071C69.6838 21.643 55.7927 7.74953 38.7316 7.74953ZM38.7316 15.4947C51.6077 15.4947 61.9401 25.8287 61.9401 38.7071C61.9401 51.5853 51.6077 61.9503 38.7316 61.9503C25.8556 61.9503 15.5005 51.5853 15.5005 38.7071C15.5005 25.8287 25.8556 15.4947 38.7316 15.4947ZM30.4737 26.5903C29.7032 26.5919 28.9506 26.8235 28.3124 27.2553C27.6741 27.6872 27.1792 28.2998 26.8909 29.0145C26.6027 29.7293 26.5341 30.5137 26.6941 31.2676C26.8542 32.0215 27.2354 32.7103 27.7891 33.2463L33.2566 38.7223L27.7891 44.1983C27.4165 44.5541 27.1186 44.981 26.9129 45.4534C26.7072 45.9258 26.5978 46.4341 26.5911 46.9493C26.5844 47.4645 26.6806 47.9762 26.874 48.4537C27.0674 48.9313 27.3541 49.3653 27.7174 49.7307C28.0806 50.096 28.5132 50.3852 28.9896 50.5812C29.466 50.7773 29.9767 50.8765 30.4919 50.8726C31.007 50.8688 31.5162 50.762 31.9897 50.5589C32.4631 50.3557 32.8913 50.0603 33.249 49.6896L38.7241 44.2135L44.1916 49.6896C44.5516 50.0521 44.9797 50.3398 45.4512 50.5365C45.9227 50.7333 46.4284 50.8351 46.9393 50.836C47.4502 50.8369 47.9563 50.7371 48.4285 50.5419C48.9007 50.3467 49.3297 50.0603 49.691 49.699C50.0522 49.3376 50.3387 48.9086 50.5338 48.4363C50.7289 47.964 50.8289 47.4576 50.828 46.9466C50.8272 46.4356 50.7255 45.9299 50.5288 45.4583C50.3321 44.9867 50.0442 44.5584 49.6817 44.1983L44.2067 38.7223L49.6817 33.2463C50.2451 32.7019 50.6302 31.9996 50.7861 31.2319C50.9421 30.4641 50.8615 29.6672 50.5551 28.9461C50.2488 28.2251 49.7309 27.6138 49.07 27.1932C48.4092 26.7726 47.6363 26.5624 46.8535 26.5903C45.8476 26.6201 44.8929 27.0405 44.1916 27.7622L38.7241 33.2382L33.249 27.7622C32.8882 27.3913 32.4566 27.0963 31.98 26.8951C31.5033 26.6939 30.9911 26.5902 30.4737 26.5903Z" fill="#6C757D" fill-opacity="0.5"/>
</svg>
