<svg width="89" height="89" viewBox="0 0 89 89" fill="none" xmlns="http://www.w3.org/2000/svg">
<rect x="3" y="3" width="83" height="83" rx="41.5" fill="#88CDEB"/>
<rect x="3" y="3" width="83" height="83" rx="41.5" stroke="#F6F6F6" stroke-width="6"/>
<g clip-path="url(#clip0_185_2255)">
<rect width="24" height="24" transform="translate(32.5 32.5)" fill="white" fill-opacity="0.01"/>
<path d="M44.5029 44.5012C45.6964 44.5012 46.841 44.0271 47.6849 43.1832C48.5288 42.3393 49.0029 41.1947 49.0029 40.0012C49.0029 38.8077 48.5288 37.6632 47.6849 36.8192C46.841 35.9753 45.6964 35.5012 44.5029 35.5012C43.3095 35.5012 42.1649 35.9753 41.3209 36.8192C40.477 37.6632 40.0029 38.8077 40.0029 40.0012C40.0029 41.1947 40.477 42.3393 41.3209 43.1832C42.1649 44.0271 43.3095 44.5012 44.5029 44.5012V44.5012ZM47.5029 40.0012C47.5029 40.7969 47.1869 41.5599 46.6242 42.1225C46.0616 42.6852 45.2986 43.0012 44.5029 43.0012C43.7073 43.0012 42.9442 42.6852 42.3816 42.1225C41.819 41.5599 41.5029 40.7969 41.5029 40.0012C41.5029 39.2056 41.819 38.4425 42.3816 37.8799C42.9442 37.3173 43.7073 37.0012 44.5029 37.0012C45.2986 37.0012 46.0616 37.3173 46.6242 37.8799C47.1869 38.4425 47.5029 39.2056 47.5029 40.0012V40.0012ZM53.5029 52.0012C53.5029 53.5012 52.0029 53.5012 52.0029 53.5012H37.0029C37.0029 53.5012 35.5029 53.5012 35.5029 52.0012C35.5029 50.5012 37.0029 46.0012 44.5029 46.0012C52.0029 46.0012 53.5029 50.5012 53.5029 52.0012ZM52.0029 51.9952C52.0014 51.6262 51.7719 50.5162 50.7549 49.4992C49.7769 48.5212 47.9364 47.5012 44.5029 47.5012C41.0679 47.5012 39.2289 48.5212 38.2509 49.4992C37.2339 50.5162 37.0059 51.6262 37.0029 51.9952H52.0029Z" fill="white"/>
</g>
<defs>
<clipPath id="clip0_185_2255">
<rect width="24" height="24" fill="white" transform="translate(32.5 32.5)"/>
</clipPath>
</defs>
</svg>
