<svg width="86" height="34" viewBox="0 0 86 34" fill="none" xmlns="http://www.w3.org/2000/svg">
<path d="M47.6662 14.5H38.9142V12.916H45.7942V12.34C45.7942 11.2947 45.4742 10.468 44.8342 9.86C44.2049 9.24133 43.3409 8.932 42.2422 8.932C41.8795 8.932 41.5169 8.96933 41.1542 9.044C40.7915 9.108 40.4982 9.19867 40.2742 9.316C40.1569 9.22 40.0502 9.08133 39.9542 8.9C39.8689 8.71867 39.8262 8.55333 39.8262 8.404C39.8262 8.06267 40.0609 7.796 40.5302 7.604C40.9995 7.40133 41.6342 7.3 42.4342 7.3C43.5222 7.3 44.4555 7.49733 45.2342 7.892C46.0129 8.28667 46.6102 8.852 47.0262 9.588C47.4529 10.3133 47.6662 11.1827 47.6662 12.196V14.5ZM49.5951 2.756C49.5951 2.47867 49.6804 2.27067 49.8511 2.132C50.0324 1.98267 50.2671 1.908 50.5551 1.908C50.7044 1.908 50.8591 1.924 51.0191 1.956C51.1791 1.988 51.3071 2.03067 51.4031 2.084V12.916H53.8351V14.5H49.5951V2.756ZM53.3616 12.916H60.2416V14.5H53.3616V12.916ZM62.1678 8.228C62.1678 7.95067 62.2585 7.74267 62.4398 7.604C62.6211 7.45467 62.8558 7.38 63.1438 7.38C63.2931 7.38 63.4478 7.396 63.6078 7.428C63.7678 7.46 63.8958 7.50267 63.9918 7.556V9.252C64.2798 8.71867 64.7811 8.26 65.4958 7.876C66.2211 7.492 67.1011 7.3 68.1358 7.3C68.6905 7.3 69.2345 7.37467 69.7678 7.524C70.3118 7.66267 70.8025 7.908 71.2398 8.26C71.6878 8.60133 72.0398 9.07067 72.2958 9.668C72.5625 10.2547 72.6958 10.996 72.6958 11.892V12.916H74.8718V14.5H59.7678V12.916H62.1678V8.228ZM70.8558 12.036C70.8558 11.0013 70.5998 10.2387 70.0878 9.748C69.5758 9.24667 68.8451 8.996 67.8958 8.996C67.0851 8.996 66.3865 9.16133 65.7998 9.492C65.2131 9.82267 64.7598 10.2867 64.4398 10.884C64.1305 11.4707 63.9758 12.148 63.9758 12.916H70.8558V12.036ZM81.8488 11.044C82.2755 11.6733 82.6541 12.3027 82.9848 12.932V14.5H74.3928V12.916H80.8888C80.5795 12.404 80.2595 11.924 79.9288 11.476C79.6088 11.0173 79.3101 10.6387 79.0328 10.34C78.5741 9.80667 78.1421 9.43867 77.7368 9.236C77.3421 9.03333 76.9368 8.932 76.5208 8.932C76.3501 8.932 76.1901 8.948 76.0408 8.98C75.9021 9.012 75.7581 9.05467 75.6088 9.108C75.3528 8.79867 75.2248 8.49467 75.2248 8.196C75.2248 7.91867 75.3635 7.7 75.6408 7.54C75.9288 7.38 76.3181 7.3 76.8088 7.3C77.4915 7.3 78.1101 7.46 78.6648 7.78C79.2301 8.1 79.8115 8.58 80.4088 9.22C80.9528 9.80667 81.4328 10.4147 81.8488 11.044Z" fill="#444FB6"/>
<path d="M47.6662 14.5V14.8C47.8319 14.8 47.9662 14.6657 47.9662 14.5H47.6662ZM38.9142 14.5H38.6142C38.6142 14.6657 38.7485 14.8 38.9142 14.8V14.5ZM38.9142 12.916V12.616C38.7485 12.616 38.6142 12.7503 38.6142 12.916H38.9142ZM45.7942 12.916V13.216C45.9599 13.216 46.0942 13.0817 46.0942 12.916H45.7942ZM44.8342 9.86L44.6238 10.074L44.6276 10.0775L44.8342 9.86ZM41.1542 9.044L41.2063 9.33955L41.2147 9.33784L41.1542 9.044ZM40.2742 9.316L40.0842 9.54819C40.1773 9.62434 40.3069 9.63755 40.4134 9.58175L40.2742 9.316ZM39.9542 8.9L39.6824 9.02788L39.6891 9.04037L39.9542 8.9ZM40.5302 7.604L40.6438 7.88172L40.6491 7.87942L40.5302 7.604ZM45.2342 7.892L45.0986 8.15959L45.0986 8.15959L45.2342 7.892ZM47.0262 9.588L46.765 9.73564L46.7676 9.74011L47.0262 9.588ZM47.6662 14.2H38.9142V14.8H47.6662V14.2ZM39.2142 14.5V12.916H38.6142V14.5H39.2142ZM38.9142 13.216H45.7942V12.616H38.9142V13.216ZM46.0942 12.916V12.34H45.4942V12.916H46.0942ZM46.0942 12.34C46.0942 11.2288 45.7514 10.3175 45.0408 9.6425L44.6276 10.0775C45.197 10.6185 45.4942 11.3605 45.4942 12.34H46.0942ZM45.0445 9.64606C44.3461 8.95946 43.3992 8.632 42.2422 8.632V9.232C43.2825 9.232 44.0636 9.5232 44.6239 10.0739L45.0445 9.64606ZM42.2422 8.632C41.8588 8.632 41.4758 8.67148 41.0937 8.75016L41.2147 9.33784C41.5579 9.26718 41.9003 9.232 42.2422 9.232V8.632ZM41.1021 8.74856C40.7216 8.81571 40.3957 8.9137 40.135 9.05025L40.4134 9.58175C40.6007 9.48364 40.8615 9.40029 41.2063 9.33943L41.1021 8.74856ZM40.4642 9.08381C40.3866 9.02035 40.3028 8.9174 40.2193 8.75963L39.6891 9.04037C39.7975 9.24526 39.9271 9.41965 40.0842 9.54819L40.4642 9.08381ZM40.2256 8.77226C40.153 8.6179 40.1262 8.49677 40.1262 8.404H39.5262C39.5262 8.60989 39.5847 8.81943 39.6827 9.02774L40.2256 8.77226ZM40.1262 8.404C40.1262 8.24104 40.2236 8.05357 40.6438 7.88166L40.4166 7.32634C39.8981 7.53843 39.5262 7.88429 39.5262 8.404H40.1262ZM40.6491 7.87942C41.0657 7.69952 41.6545 7.6 42.4342 7.6V7C41.6139 7 40.9333 7.10315 40.4113 7.32858L40.6491 7.87942ZM42.4342 7.6C43.4864 7.6 44.371 7.79083 45.0986 8.15959L45.3698 7.62441C44.54 7.20383 43.558 7 42.4342 7V7.6ZM45.0986 8.15959C45.8263 8.52844 46.3791 9.05286 46.765 9.73562L47.2874 9.44038C46.8413 8.65114 46.1994 8.04489 45.3698 7.62441L45.0986 8.15959ZM46.7676 9.74011C47.1621 10.4107 47.3662 11.2252 47.3662 12.196H47.9662C47.9662 11.1401 47.7436 10.2159 47.2848 9.43589L46.7676 9.74011ZM47.3662 12.196V14.5H47.9662V12.196H47.3662ZM49.8511 2.132L50.0402 2.36484L50.0418 2.36358L49.8511 2.132ZM51.4031 2.084H51.7031C51.7031 1.97505 51.644 1.87466 51.5488 1.82175L51.4031 2.084ZM51.4031 12.916H51.1031C51.1031 13.0817 51.2374 13.216 51.4031 13.216V12.916ZM53.8351 12.916H54.1351C54.1351 12.7503 54.0007 12.616 53.8351 12.616V12.916ZM53.8351 14.5V14.8C54.0007 14.8 54.1351 14.6657 54.1351 14.5H53.8351ZM49.5951 14.5H49.2951C49.2951 14.6657 49.4294 14.8 49.5951 14.8V14.5ZM49.8951 2.756C49.8951 2.54328 49.9575 2.43208 50.0402 2.36483L49.6619 1.89916C49.4033 2.10925 49.2951 2.41405 49.2951 2.756H49.8951ZM50.0418 2.36358C50.1581 2.26781 50.3204 2.208 50.5551 2.208V1.608C50.2137 1.608 49.9067 1.69752 49.6604 1.90042L50.0418 2.36358ZM50.5551 2.208C50.6829 2.208 50.8178 2.22169 50.9602 2.25017L51.0779 1.66183C50.9003 1.6263 50.7259 1.608 50.5551 1.608V2.208ZM50.9602 2.25017C51.1031 2.27875 51.1982 2.31339 51.2574 2.34625L51.5488 1.82175C51.4159 1.74794 51.255 1.69725 51.0779 1.66183L50.9602 2.25017ZM51.1031 2.084V12.916H51.7031V2.084H51.1031ZM51.4031 13.216H53.8351V12.616H51.4031V13.216ZM53.5351 12.916V14.5H54.1351V12.916H53.5351ZM53.8351 14.2H49.5951V14.8H53.8351V14.2ZM49.8951 14.5V2.756H49.2951V14.5H49.8951ZM53.3616 12.916V12.616C53.1959 12.616 53.0616 12.7503 53.0616 12.916H53.3616ZM60.2416 12.916H60.5416C60.5416 12.7503 60.4072 12.616 60.2416 12.616V12.916ZM60.2416 14.5V14.8C60.4072 14.8 60.5416 14.6657 60.5416 14.5H60.2416ZM53.3616 14.5H53.0616C53.0616 14.6657 53.1959 14.8 53.3616 14.8V14.5ZM53.3616 13.216H60.2416V12.616H53.3616V13.216ZM59.9416 12.916V14.5H60.5416V12.916H59.9416ZM60.2416 14.2H53.3616V14.8H60.2416V14.2ZM53.6616 14.5V12.916H53.0616V14.5H53.6616ZM62.4398 7.604L62.6222 7.84246L62.6305 7.83558L62.4398 7.604ZM63.6078 7.428L63.6666 7.13383L63.6666 7.13383L63.6078 7.428ZM63.9918 7.556H64.2918C64.2918 7.44705 64.2327 7.34666 64.1375 7.29375L63.9918 7.556ZM63.9918 9.252H63.6918C63.6918 9.38937 63.7851 9.50919 63.9183 9.54285C64.0515 9.57652 64.1905 9.51542 64.2558 9.39454L63.9918 9.252ZM65.4958 7.876L65.3554 7.61086L65.3538 7.61173L65.4958 7.876ZM69.7678 7.524L69.6869 7.81297L69.6937 7.8147L69.7678 7.524ZM71.2398 8.26L71.0516 8.49379L71.058 8.49863L71.2398 8.26ZM72.2958 9.668L72.02 9.7862L72.0227 9.79214L72.2958 9.668ZM72.6958 12.916H72.3958C72.3958 13.0817 72.5301 13.216 72.6958 13.216V12.916ZM74.8718 12.916H75.1718C75.1718 12.7503 75.0375 12.616 74.8718 12.616V12.916ZM74.8718 14.5V14.8C75.0375 14.8 75.1718 14.6657 75.1718 14.5H74.8718ZM59.7678 14.5H59.4678C59.4678 14.6657 59.6021 14.8 59.7678 14.8V14.5ZM59.7678 12.916V12.616C59.6021 12.616 59.4678 12.7503 59.4678 12.916H59.7678ZM62.1678 12.916V13.216C62.3335 13.216 62.4678 13.0817 62.4678 12.916H62.1678ZM70.0878 9.748L69.8779 9.96237L69.8802 9.9646L70.0878 9.748ZM65.7998 9.492L65.6525 9.23065L65.6525 9.23065L65.7998 9.492ZM64.4398 10.884L64.1754 10.7423L64.1744 10.7441L64.4398 10.884ZM63.9758 12.916H63.6758C63.6758 13.0817 63.8101 13.216 63.9758 13.216V12.916ZM70.8558 12.916V13.216C71.0215 13.216 71.1558 13.0817 71.1558 12.916H70.8558ZM62.4678 8.228C62.4678 8.0217 62.5311 7.91186 62.622 7.84231L62.2576 7.36569C61.9859 7.57347 61.8678 7.87963 61.8678 8.228H62.4678ZM62.6305 7.83558C62.7468 7.73981 62.9091 7.68 63.1438 7.68V7.08C62.8025 7.08 62.4955 7.16952 62.2491 7.37242L62.6305 7.83558ZM63.1438 7.68C63.2717 7.68 63.4066 7.69369 63.549 7.72217L63.6666 7.13383C63.489 7.0983 63.3146 7.08 63.1438 7.08V7.68ZM63.549 7.72217C63.6918 7.75075 63.787 7.78539 63.8461 7.81825L64.1375 7.29375C64.0046 7.21994 63.8438 7.16925 63.6666 7.13383L63.549 7.72217ZM63.6918 7.556V9.252H64.2918V7.556H63.6918ZM64.2558 9.39454C64.5079 8.92762 64.9577 8.50569 65.6378 8.14027L65.3538 7.61173C64.6046 8.01431 64.0517 8.50971 63.7278 9.10946L64.2558 9.39454ZM65.6362 8.14114C66.3084 7.78523 67.1376 7.6 68.1358 7.6V7C67.0647 7 66.1339 7.19877 65.3554 7.61086L65.6362 8.14114ZM68.1358 7.6C68.6632 7.6 69.18 7.67094 69.6869 7.81289L69.8487 7.23511C69.289 7.07839 68.7178 7 68.1358 7V7.6ZM69.6937 7.8147C70.1961 7.94276 70.6479 8.16865 71.0517 8.4937L71.4279 8.0263C70.9571 7.64735 70.4276 7.38258 69.8419 7.2333L69.6937 7.8147ZM71.058 8.49863C71.4589 8.80404 71.7813 9.22902 72.0201 9.78618L72.5716 9.54982C72.2983 8.91231 71.9168 8.39862 71.4216 8.02137L71.058 8.49863ZM72.0227 9.79214C72.2661 10.3277 72.3958 11.0232 72.3958 11.892H72.9958C72.9958 10.9688 72.8588 10.1816 72.5689 9.54386L72.0227 9.79214ZM72.3958 11.892V12.916H72.9958V11.892H72.3958ZM72.6958 13.216H74.8718V12.616H72.6958V13.216ZM74.5718 12.916V14.5H75.1718V12.916H74.5718ZM74.8718 14.2H59.7678V14.8H74.8718V14.2ZM60.0678 14.5V12.916H59.4678V14.5H60.0678ZM59.7678 13.216H62.1678V12.616H59.7678V13.216ZM62.4678 12.916V8.228H61.8678V12.916H62.4678ZM71.1558 12.036C71.1558 10.9573 70.889 10.1003 70.2954 9.5314L69.8802 9.9646C70.3106 10.377 70.5558 11.0454 70.5558 12.036H71.1558ZM70.2977 9.53365C69.7133 8.96141 68.8973 8.696 67.8958 8.696V9.296C68.793 9.296 69.4383 9.53192 69.8779 9.96235L70.2977 9.53365ZM67.8958 8.696C67.044 8.696 66.2925 8.86995 65.6525 9.23065L65.9471 9.75335C66.4805 9.45272 67.1263 9.296 67.8958 9.296V8.696ZM65.6525 9.23065C65.0159 9.58947 64.5221 10.0951 64.1754 10.7423L64.7043 11.0257C64.9975 10.4782 65.4104 10.0559 65.9471 9.75335L65.6525 9.23065ZM64.1744 10.7441C63.839 11.3802 63.6758 12.107 63.6758 12.916H64.2758C64.2758 12.189 64.4219 11.5611 64.7052 11.0239L64.1744 10.7441ZM63.9758 13.216H70.8558V12.616H63.9758V13.216ZM71.1558 12.916V12.036H70.5558V12.916H71.1558ZM81.8488 11.044L81.5985 11.2094L81.6005 11.2123L81.8488 11.044ZM82.9848 12.932H83.2848C83.2848 12.8834 83.273 12.8355 83.2504 12.7925L82.9848 12.932ZM82.9848 14.5V14.8C83.1505 14.8 83.2848 14.6657 83.2848 14.5H82.9848ZM74.3928 14.5H74.0928C74.0928 14.6657 74.2271 14.8 74.3928 14.8V14.5ZM74.3928 12.916V12.616C74.2271 12.616 74.0928 12.7503 74.0928 12.916H74.3928ZM80.8888 12.916V13.216C80.9971 13.216 81.0969 13.1577 81.1501 13.0634C81.2033 12.9691 81.2016 12.8535 81.1456 12.7609L80.8888 12.916ZM79.9288 11.476L79.6827 11.6477L79.6874 11.6542L79.9288 11.476ZM79.0328 10.34L78.8052 10.5358L78.813 10.5441L79.0328 10.34ZM77.7368 9.236L77.5998 9.50289L77.6026 9.50433L77.7368 9.236ZM76.0408 8.98L75.9779 8.68662L75.9734 8.68768L76.0408 8.98ZM75.6088 9.108L75.3777 9.29927C75.4582 9.3965 75.5909 9.43297 75.7097 9.39052L75.6088 9.108ZM75.6408 7.54L75.4951 7.27772L75.4909 7.28014L75.6408 7.54ZM78.6648 7.78L78.5149 8.03986L78.517 8.04108L78.6648 7.78ZM80.4088 9.22L80.6288 9.01602L80.6281 9.0153L80.4088 9.22ZM81.6005 11.2123C82.0213 11.833 82.3941 12.4528 82.7192 13.0715L83.2504 12.7925C82.9142 12.1526 82.5296 11.5136 82.0971 10.8757L81.6005 11.2123ZM82.6848 12.932V14.5H83.2848V12.932H82.6848ZM82.9848 14.2H74.3928V14.8H82.9848V14.2ZM74.6928 14.5V12.916H74.0928V14.5H74.6928ZM74.3928 13.216H80.8888V12.616H74.3928V13.216ZM81.1456 12.7609C80.8318 12.2415 80.5067 11.7538 80.1702 11.2978L79.6874 11.6542C80.0122 12.0942 80.3271 12.5665 80.632 13.0711L81.1456 12.7609ZM80.1749 11.3043C79.8496 10.8381 79.5422 10.4477 79.2527 10.1359L78.813 10.5441C79.0781 10.8296 79.368 11.1965 79.6828 11.6477L80.1749 11.3043ZM79.2603 10.1444C78.7885 9.59577 78.3261 9.19522 77.871 8.96767L77.6026 9.50433C77.9582 9.68211 78.3598 10.0176 78.8054 10.5356L79.2603 10.1444ZM77.8739 8.96913C77.4397 8.74618 76.9876 8.632 76.5208 8.632V9.232C76.886 9.232 77.2446 9.32049 77.5998 9.50287L77.8739 8.96913ZM76.5208 8.632C76.3314 8.632 76.1502 8.64975 75.978 8.68666L76.1037 9.27334C76.2301 9.24625 76.3688 9.232 76.5208 9.232V8.632ZM75.9734 8.68768C75.8222 8.72257 75.667 8.76867 75.5079 8.82548L75.7097 9.39052C75.8493 9.34066 75.9821 9.30143 76.1083 9.27232L75.9734 8.68768ZM75.8399 8.91673C75.6131 8.64262 75.5248 8.40402 75.5248 8.196H74.9248C74.9248 8.58531 75.0925 8.95471 75.3777 9.29927L75.8399 8.91673ZM75.5248 8.196C75.5248 8.04431 75.5891 7.91617 75.7907 7.79986L75.4909 7.28014C75.1378 7.48383 74.9248 7.79302 74.9248 8.196H75.5248ZM75.7865 7.80225C76.0134 7.67621 76.346 7.6 76.8088 7.6V7C76.2902 7 75.8443 7.08379 75.4951 7.27775L75.7865 7.80225ZM76.8088 7.6C77.4425 7.6 78.0088 7.7479 78.5149 8.03986L78.8147 7.52014C78.2115 7.1721 77.5405 7 76.8088 7V7.6ZM78.517 8.04108C79.0484 8.34184 79.6063 8.7998 80.1895 9.4247L80.6281 9.0153C80.0167 8.3602 79.4119 7.85816 78.8126 7.51892L78.517 8.04108ZM80.1888 9.42398C80.7224 9.99936 81.1921 10.5945 81.5985 11.2094L82.0991 10.8786C81.6735 10.2348 81.1833 9.61397 80.6288 9.01602L80.1888 9.42398Z" fill="#444FB6"/>
<path d="M13.5 14.5C11.0148 14.5 9 16.5148 9 19C9 21.4852 11.0148 23.5 13.5 23.5C15.9852 23.5 18 21.4852 18 19C18 16.5148 15.9852 14.5 13.5 14.5Z" fill="#88CDEB"/>
<path d="M9 14.5L0 14.5L-3.93403e-07 23.5C4.97017 23.5 9 19.4702 9 14.5Z" fill="#444FB6"/>
<path d="M22.5 14.5H18V19C18 21.4854 20.0146 23.5 22.5 23.5C24.9854 23.5 27 21.4854 27 19C27 16.5146 24.9854 14.5 22.5 14.5Z" fill="#D2E754"/>
<path d="M13.364 14.2279C16.8785 10.7135 16.8785 5.01444 13.364 1.5C9.84958 5.01444 9.84957 10.7135 13.364 14.2279Z" fill="#E14561"/>
<path d="M38.0374 21.3H40.6134V25.764H44.5654V21.3H47.1414V32.5H44.5654V27.812H40.6134V32.5H38.0374V21.3ZM52.2177 32.66C51.695 32.66 51.2257 32.548 50.8097 32.324C50.3937 32.1 50.0684 31.796 49.8337 31.412C49.599 31.0173 49.4817 30.5747 49.4817 30.084C49.4817 29.2627 49.8124 28.6333 50.4737 28.196C51.135 27.7587 52.0844 27.54 53.3217 27.54H54.4417V27.22C54.4417 26.8573 54.3244 26.5747 54.0897 26.372C53.855 26.1693 53.535 26.068 53.1297 26.068C52.6497 26.068 52.1857 26.148 51.7377 26.308C51.3004 26.468 50.9377 26.6867 50.6497 26.964L49.6737 25.668C50.1324 25.2627 50.671 24.9427 51.2897 24.708C51.919 24.4627 52.5537 24.34 53.1937 24.34C54.2817 24.34 55.1404 24.596 55.7697 25.108C56.399 25.6093 56.7137 26.2973 56.7137 27.172V30.772C56.7137 31.028 56.735 31.332 56.7777 31.684C56.8204 32.036 56.8684 32.308 56.9217 32.5H54.8897C54.8257 32.3507 54.7777 32.2173 54.7457 32.1C54.7137 31.9827 54.687 31.8173 54.6657 31.604H54.6337C54.0364 32.308 53.231 32.66 52.2177 32.66ZM52.8257 30.98C53.295 30.98 53.679 30.8627 53.9777 30.628C54.287 30.3827 54.4417 30.0733 54.4417 29.7V29.028H53.2577C52.7564 29.028 52.3724 29.1187 52.1057 29.3C51.839 29.4813 51.7057 29.7427 51.7057 30.084C51.7057 30.372 51.8017 30.596 51.9937 30.756C52.1857 30.9053 52.463 30.98 52.8257 30.98ZM61.9006 32.66C61.1752 32.66 60.5406 32.516 59.9966 32.228C59.4526 31.94 59.0739 31.556 58.8606 31.076L60.2686 30.116C60.4606 30.3827 60.7006 30.596 60.9886 30.756C61.2766 30.9053 61.5699 30.98 61.8686 30.98C62.1992 30.98 62.4712 30.9 62.6846 30.74C62.8979 30.58 63.0046 30.3773 63.0046 30.132C63.0046 30.004 62.9726 29.9027 62.9086 29.828C62.8552 29.7427 62.7432 29.6573 62.5726 29.572C62.4019 29.4867 62.1299 29.3693 61.7566 29.22C60.7539 28.8253 60.0499 28.436 59.6446 28.052C59.2499 27.6573 59.0526 27.172 59.0526 26.596C59.0526 25.9133 59.3299 25.3693 59.8846 24.964C60.4392 24.548 61.1752 24.34 62.0926 24.34C62.7219 24.34 63.2819 24.4573 63.7726 24.692C64.2739 24.916 64.6846 25.2467 65.0046 25.684L63.6926 26.66C63.3299 26.2333 62.8339 26.02 62.2046 26.02C61.9166 26.02 61.6926 26.068 61.5326 26.164C61.3832 26.26 61.3086 26.3933 61.3086 26.564C61.3086 26.692 61.3406 26.7987 61.4046 26.884C61.4686 26.9587 61.5966 27.0493 61.7886 27.156C61.9912 27.252 62.3272 27.3907 62.7966 27.572C63.4579 27.828 63.9646 28.0733 64.3166 28.308C64.6686 28.5427 64.9139 28.7933 65.0526 29.06C65.2019 29.316 65.2766 29.636 65.2766 30.02C65.2766 30.5427 65.1326 31.0067 64.8446 31.412C64.5672 31.8067 64.1726 32.116 63.6606 32.34C63.1486 32.5533 62.5619 32.66 61.9006 32.66ZM69.7121 32.66C69.1894 32.66 68.7201 32.548 68.3041 32.324C67.8881 32.1 67.5627 31.796 67.3281 31.412C67.0934 31.0173 66.9761 30.5747 66.9761 30.084C66.9761 29.2627 67.3067 28.6333 67.9681 28.196C68.6294 27.7587 69.5787 27.54 70.8161 27.54H71.9361V27.22C71.9361 26.8573 71.8187 26.5747 71.5841 26.372C71.3494 26.1693 71.0294 26.068 70.6241 26.068C70.1441 26.068 69.6801 26.148 69.2321 26.308C68.7947 26.468 68.4321 26.6867 68.1441 26.964L67.1681 25.668C67.6267 25.2627 68.1654 24.9427 68.7841 24.708C69.4134 24.4627 70.0481 24.34 70.6881 24.34C71.7761 24.34 72.6347 24.596 73.2641 25.108C73.8934 25.6093 74.2081 26.2973 74.2081 27.172V30.772C74.2081 31.028 74.2294 31.332 74.2721 31.684C74.3147 32.036 74.3627 32.308 74.4161 32.5H72.3841C72.3201 32.3507 72.2721 32.2173 72.2401 32.1C72.2081 31.9827 72.1814 31.8173 72.1601 31.604H72.1281C71.5307 32.308 70.7254 32.66 69.7121 32.66ZM70.3201 30.98C70.7894 30.98 71.1734 30.8627 71.4721 30.628C71.7814 30.3827 71.9361 30.0733 71.9361 29.7V29.028H70.7521C70.2507 29.028 69.8667 29.1187 69.6001 29.3C69.3334 29.4813 69.2001 29.7427 69.2001 30.084C69.2001 30.372 69.2961 30.596 69.4881 30.756C69.6801 30.9053 69.9574 30.98 70.3201 30.98ZM79.7469 32.66C78.6909 32.66 77.8643 32.2813 77.2669 31.524C76.6696 30.7667 76.3709 29.716 76.3709 28.372C76.3709 27.5613 76.5096 26.852 76.7869 26.244C77.0643 25.636 77.4589 25.1667 77.9709 24.836C78.4936 24.5053 79.1016 24.34 79.7949 24.34C80.2643 24.34 80.6643 24.4147 80.9949 24.564C81.3363 24.7027 81.6403 24.9267 81.9069 25.236H81.9389V20.628H84.2109V30.34C84.2109 31.492 84.2269 32.212 84.2589 32.5H82.1149C82.1043 32.34 82.0989 32.0093 82.0989 31.508H82.0669C81.8216 31.8493 81.4856 32.1267 81.0589 32.34C80.6429 32.5533 80.2056 32.66 79.7469 32.66ZM80.2109 30.932C80.7336 30.932 81.1496 30.788 81.4589 30.5C81.7789 30.2013 81.9389 29.8067 81.9389 29.316V27.604C81.9389 27.1667 81.7736 26.7933 81.4429 26.484C81.1123 26.1747 80.7016 26.02 80.2109 26.02C79.6883 26.02 79.2936 26.2227 79.0269 26.628C78.7603 27.0333 78.6269 27.6253 78.6269 28.404C78.6269 29.2253 78.7603 29.8547 79.0269 30.292C79.2936 30.7187 79.6883 30.932 80.2109 30.932Z" fill="#444FB6"/>
<rect x="9" y="23.5" width="9" height="9" fill="#F6F6F6"/>
</svg>
